<svg preserveAspectRatio="none" width="100%" height="100%" overflow="visible" style="display: block;" viewBox="0 0 73 96" fill="none" xmlns="http://www.w3.org/2000/svg">
<g id="Group">
<path id="Vector" d="M71.8531 46.8003C71.8531 45.4271 71.876 44.0447 71.8163 42.6716C71.7474 41.0779 69.52 41.5648 68.2892 41.5648H63.513V32.6643C63.513 29.6929 64.0181 26.9512 61.7998 24.6686C59.4071 22.207 56.2153 23.1393 53.2531 22.9142C53.2531 21.7202 53.6847 19.0519 52.1646 19.0014C50.9292 18.9601 49.6663 19.0427 48.4355 19.0014V10.9139C50.4424 10.3811 51.9442 8.94364 52.555 6.95046H69.1297C69.9793 6.95964 70.9345 7.15249 71.6969 6.73916C71.6785 6.52331 71.8255 5.44865 71.8531 5.14095C70.9116 4.58984 69.8553 4.76898 68.7945 4.76898H52.7112C52.0545 1.61846 49.3081 -0.535463 46.029 0.116684C40.6648 1.18676 39.9988 9.38453 46.3182 10.9139V16.2183C46.3182 17.1506 46.2631 18.0737 46.3182 19.0014H43.8383C40.8347 18.9784 41.6614 20.2046 41.6614 22.9142H28.7241L28.7332 20.9027C28.7424 18.905 28.5954 18.9692 26.6711 18.9968C25.748 19.0106 24.678 19.029 23.7549 19.0014V10.9139C30.157 9.64631 29.1834 -0.154326 22.5287 0.0110074C15.4607 0.185526 15.6352 10.1102 21.5872 10.9139V19.0014L18.9005 18.9922C15.1025 18.9601 16.8201 20.3149 16.4114 22.9097H13.4308C11.3871 22.9097 9.76132 22.8224 8.14932 24.3885C5.96784 26.5057 6.50974 29.8123 6.50974 32.6506V41.2387H2.96427C1.91257 41.2387 0.769057 40.9861 0.0204655 41.8633C0.0755765 46.3732 0.0204655 51.0025 0.0204655 55.5216V58.9569C0.0204655 60.2015 -0.181631 60.7709 0.686368 61.7308C2.18355 61.6895 5.06307 61.5792 6.50974 61.7308V65.3773C6.50974 67.7838 6.28475 70.0067 8.17231 71.8207C10.3125 73.8782 13.7615 72.9827 16.4068 73.1893V78.4845C16.4068 78.9989 16.3563 80.4318 16.4068 80.8543C17.2426 81.5203 17.7708 81.433 18.7995 81.3687V87.3391C18.7995 88.1336 18.8133 88.9556 18.7995 89.7456C18.6204 96.9146 27.8469 97.4244 29.1512 91.5275C29.4314 90.2553 29.3211 88.4643 29.3211 87.137V81.3687C30.5335 81.4605 31.5118 81.4835 31.5163 79.9358C31.5301 77.69 31.5118 75.4397 31.5163 73.1939H39.0987C39.0344 75.1641 39.1446 77.1986 39.0987 79.1734C39.0528 81.0656 39.2365 81.3963 41.1838 81.3733C41.1516 84.1472 41.2113 86.9303 41.1838 89.7043C40.9404 96.7217 49.3126 97.3647 51.2921 92.3404C51.8478 90.9305 51.6641 89.1623 51.6641 87.6468V81.3733C54.7319 81.3733 54.1486 80.7717 54.144 78.0529V73.1985H57.0558C62.7598 73.2077 63.5176 70.8793 63.5176 65.731V61.7354H71.302C71.5362 61.5058 71.651 61.3772 71.8577 61.12C71.9266 60.5367 71.8577 59.3656 71.8577 58.7181V46.8049L71.8531 46.8003ZM6.51433 59.6504H2.16057C2.09168 58.0522 2.16057 55.9396 2.16057 54.2816V43.3742C2.5785 43.3467 3.19388 43.3696 3.62558 43.3742H6.50974V59.6504H6.51433ZM43.9669 6.20646C43.5628 4.41076 44.6879 2.6242 46.479 2.20628C48.2931 1.78376 50.098 2.92273 50.5067 4.7368C50.9155 6.55087 49.7673 8.35115 47.9486 8.74612C46.1483 9.13649 44.371 8.00216 43.9669 6.20646ZM43.8153 21.1507H51.1267C51.1129 21.7385 51.1221 22.3264 51.1267 22.9142H46.185C45.5559 22.9142 44.3802 22.9648 43.8153 22.9142V21.1507ZM19.2771 5.82524C19.1026 3.98361 20.4483 2.34407 22.2899 2.16036C24.1453 1.97666 25.7941 3.33146 25.9732 5.18686C26.1523 7.04227 24.7836 8.68641 22.9282 8.85633C21.0866 9.02167 19.4517 7.67146 19.2771 5.82524ZM18.5699 21.1507H26.4875V22.9142H21.2612C20.3794 22.9142 19.4379 22.8729 18.5699 22.9142V21.1507ZM26.2762 92.4644C24.6183 94.0902 21.4632 93.4013 21.0132 90.9902C20.8386 90.0533 20.9258 88.6066 20.9258 87.6192V81.3641H27.1213C27.0892 82.0392 27.1213 82.9807 27.1213 83.6788V88.2622C27.1213 89.7777 27.3831 91.2749 26.2762 92.4644ZM29.3257 75.2192V79.2102H23.3049C21.7526 79.2102 20.113 79.2469 18.5699 79.2102V73.1847H29.3211C29.4221 73.9884 29.3303 74.4247 29.3211 75.2146L29.3257 75.2192ZM46.3182 93.4518C42.8692 93.236 43.3147 89.966 43.3147 87.5595V81.3641C44.0633 81.3044 45.68 81.3641 46.5204 81.3641C47.3563 81.3687 48.7662 81.2722 49.4872 81.3641V87.5641C49.4872 90.0487 49.951 93.3783 46.3182 93.4518ZM52.0269 79.2148C51.9672 79.2561 42.1758 79.2148 41.1884 79.2148V73.1893H52.0269V79.2148ZM12.301 35.6679C13.6696 35.6862 15.0382 35.6771 16.4068 35.6771H49.4826H61.4003V64.5139C61.4003 66.5117 61.956 70.691 59.0995 71.0033C57.6436 71.164 55.7652 71.1089 54.291 71.1089H16.0348C14.3814 71.1089 11.5983 71.3936 10.1654 70.6037C8.14927 69.4923 8.66823 66.6127 8.66823 64.7252V31.7734C8.66823 29.0408 8.02526 25.7203 11.5294 25.0774H11.6076C15.0382 25.0315 18.5791 25.0774 22.0189 25.0774H56.3393C62.4888 25.0774 61.4003 28.8157 61.3957 33.5094L12.4893 33.5186C10.9416 33.5232 10.9049 35.6495 12.2964 35.6679H12.301ZM69.7496 49.0415V59.6549H68.0826H63.5176V43.7141H69.7496C69.6945 45.3444 69.7496 47.379 69.7496 49.0415Z" fill="var(--fill-0, #C637FF)"/>
<path id="Vector_2" d="M71.8532 5.14101C71.8257 5.44871 71.6787 6.52337 71.697 6.73922C72.1701 6.24781 72.2252 5.71508 71.8532 5.14101Z" fill="var(--fill-0, #C637FF)"/>
<path id="Vector_3" d="M71.8533 12.6729C71.0772 12.2503 70.5995 12.3743 69.7361 12.3835L63.3846 12.3927C58.9252 12.3927 58.498 12.1861 55.6139 15.8923C55.196 16.4296 54.3189 17.1323 54.5577 17.9084C54.7506 18.5422 55.3568 18.9923 56.0089 18.7075C57.1708 18.2023 57.9011 15.2355 60.0366 14.666C61.0562 14.3951 62.6773 14.5191 63.7703 14.5191H68.9462C70.0117 14.5191 71.0129 14.7855 71.8579 14.0552C71.7936 13.8118 71.7936 12.9209 71.8579 12.6729H71.8533Z" fill="var(--fill-0, #C637FF)"/>
<path id="Vector_4" d="M71.8534 14.0553C72.1565 13.6603 72.1427 13.0725 71.8534 12.6729C71.7891 12.9209 71.7891 13.8165 71.8534 14.0553Z" fill="var(--fill-0, #C637FF)"/>
<path id="Vector_5" d="M23.7873 56.4402C24.7609 56.5045 25.7667 56.477 26.7449 56.477H32.1366C31.6865 57.942 28.6783 65.3912 29.2064 66.2041C30.1433 67.6507 31.14 66.2776 31.8794 65.6162C33.1239 64.5554 34.1895 63.3567 35.356 62.2223C39.0025 58.6906 42.6168 55.0992 46.3552 51.664C47.2599 50.8327 47.0119 49.6248 45.8867 49.4365C45.4321 49.3584 44.1737 49.4457 43.6639 49.4457H39.5444C38.8692 49.4457 38.0472 49.4733 37.3859 49.4457C37.9599 46.7269 38.9749 43.581 39.673 40.7841C39.5444 40.5039 39.5995 39.8427 39.673 39.5579C38.8601 38.7955 38.2079 39.0068 37.4869 39.76L26.5244 50.9659C25.9733 51.5308 20.4117 56.2198 23.7919 56.4402H23.7873ZM27.0939 53.377C29.8449 50.6306 32.481 47.7786 35.2596 45.0598C35.7096 44.6189 36.1734 44.2056 36.5684 43.7096C37.0506 44.4168 33.9782 49.8269 35.3284 51.4159C36.1 51.6685 38.0931 51.5905 38.9795 51.5905H43.3149C42.5295 52.2013 41.3723 53.4551 40.6283 54.1761L34.5707 60.0041C33.9047 60.6424 33.2479 61.4416 32.5682 62.0248L32.504 61.9927C32.752 61.2854 34.7819 55.5676 34.7773 55.3564C34.7681 54.9017 34.5706 54.6307 34.2445 54.3322C33.5602 54.2771 32.3891 54.3322 31.6543 54.3322H26.2764C26.5198 53.9878 26.7908 53.6755 27.0939 53.377Z" fill="var(--fill-0, #C637FF)"/>
<path id="Vector_6" d="M39.6728 40.7887C39.8289 40.2881 39.9162 40.0492 39.6728 39.5624C39.5993 39.8518 39.5442 40.5131 39.6728 40.7887Z" fill="var(--fill-0, #C637FF)"/>
</g>
</svg>
