<svg preserveAspectRatio="none" width="100%" height="100%" overflow="visible" style="display: block;" viewBox="0 0 96 95" fill="none" xmlns="http://www.w3.org/2000/svg">
<g id="Group">
<path id="Vector" d="M95.1916 6.17647C93.2535 4.24299 91.3706 2.16255 89.3866 0.288771C88.9686 -0.106191 86.3555 0.0269903 85.6574 0.0269903H14.8029C13.6778 0.0269903 7.14713 -0.0832318 6.61439 0.141805C6.21024 0.311731 0.777168 5.51972 0.0285761 6.62194C-0.0357201 7.17305 0.0285761 8.20181 0.0285761 8.82181V81.3801C0.0285761 83.5156 0.0561316 85.6925 0.0285761 87.8235C0.942501 88.8522 2.02177 89.8121 2.96325 90.8224C3.78532 91.7042 5.55347 93.6193 6.53169 94.3082C7.17466 94.3587 8.27685 94.3082 8.97033 94.3082H80.532H85.9697C86.8331 94.3082 88.0639 94.3358 88.8905 94.2623C89.5565 94.2026 94.7782 88.6134 95.3936 87.9061C95.6646 87.5892 95.5636 85.9772 95.559 85.5226V8.97794C95.559 8.1972 95.7886 6.76891 95.1916 6.17647ZM50.5792 15.6969C50.7905 17.2079 49.7434 18.6086 48.2324 18.8244C46.7168 19.0449 45.3115 17.9886 45.0956 16.4684C44.8798 14.9529 45.9407 13.5476 47.4562 13.3363C48.9672 13.125 50.3634 14.1813 50.5792 15.6923V15.6969ZM45.1369 78.9827C44.8568 77.5269 45.8075 76.117 47.2679 75.8322C48.733 75.5475 50.1521 76.5027 50.4322 77.9724C50.7124 79.4374 49.7479 80.8519 48.2829 81.1275C46.8225 81.3985 45.4171 80.4432 45.1415 78.9873L45.1369 78.9827ZM93.0101 46.2835H84.376C82.9937 39.1466 71.9852 42.2283 74.479 49.1906C75.8108 52.9106 81.0005 53.7373 83.3794 50.6143C83.8065 50.0495 84.0729 49.4294 84.376 48.7911H93.0101V86.6891C91.6875 88.4067 89.6299 89.9544 88.197 91.7869H66.194V71.9377C69.9416 68.3968 73.983 64.3186 77.5607 60.6078C78.8328 59.2897 76.9865 57.6777 75.6776 58.9499C74.8464 59.7582 74.0519 60.6078 73.239 61.4299L68.7796 65.8985C68.0861 66.6057 66.713 67.7952 66.1986 68.4979C63.7416 70.312 63.7599 70.6242 63.7599 73.2374V91.7869H49.0728V83.7498C54.6482 81.5178 53.9823 74.3167 48.834 73.3385C41.6742 72.126 40.526 82.4226 46.5193 83.5386V91.7869H7.43642C6.30664 90.455 3.87717 87.9796 2.5591 86.8452V48.7911H11.3631C12.6353 53.774 19.6343 54.1323 21.3887 49.2963C23.6896 43.3535 13.8844 38.7563 11.3631 46.2835H2.5591V7.71038C2.85302 7.2649 3.33985 6.80564 3.72103 6.41986L5.72799 4.41291C6.30207 3.85261 6.96798 3.24639 7.43642 2.60342H29.5176V24.1197C28.6955 25.0887 27.7494 25.9981 26.8585 26.9028L23.1798 30.6733C22.4863 31.3852 21.6275 32.1108 21.0489 32.9099C20.4151 33.7825 21.0488 34.8801 22.1281 34.8939C22.8354 34.9031 23.7952 33.5667 24.2269 33.1074C25.7563 31.4908 31.7174 25.7409 31.9608 25.0428C32.0711 24.7259 31.993 20.3262 31.993 19.6465V2.59883H46.6755V11.017C42.1334 11.4258 40.3883 19.1368 46.6755 21.2815C46.625 21.7316 46.6755 23.541 46.6755 24.083V43.9046C46.6617 47.4454 49.1555 46.1641 49.183 45.1216C49.206 44.4097 49.1693 43.652 49.1693 42.9355V21.2815C54.8962 19.5501 53.941 11.8575 49.0728 11.017C49.1142 10.2271 49.0728 9.04682 49.0728 8.22934V2.59883C49.4724 2.57127 50.2577 2.59883 50.6756 2.59883H80.0728C82.7181 2.59883 85.5839 2.54372 88.2016 2.59883C89.5473 4.11438 91.9767 6.09378 93.0147 7.70578V46.2789L93.0101 46.2835ZM82.0108 47.1561C82.1303 48.6303 81.0372 49.9208 79.5676 50.054C78.5986 50.1413 77.6617 49.705 77.106 48.9059C76.5503 48.1068 76.4676 47.0735 76.8901 46.1963C77.3126 45.3191 78.1714 44.7404 79.1405 44.6761C80.6147 44.5751 81.896 45.6819 82.0108 47.1515V47.1561ZM16.0521 44.9057C17.5447 44.6991 18.9179 45.7462 19.1108 47.2388C19.3083 48.7314 18.2474 50.0954 16.7548 50.2791C15.2806 50.4582 13.9349 49.4157 13.7374 47.9415C13.5445 46.4672 14.5779 45.1124 16.0475 44.9057H16.0521Z" fill="var(--fill-0, #C637FF)"/>
<path id="Vector_2" d="M79.0074 11.017C72.665 11.5911 72.4952 19.8991 78.0797 21.1529V32.4461C76.5688 32.4461 65.643 32.3221 65.0138 32.5563C64.3708 32.7951 62.7267 34.554 62.1572 35.1235L56.219 41.0663C55.4704 41.8241 54.4922 42.6554 53.8447 43.4774C53.1007 44.4189 53.7436 45.5165 54.9652 45.4936C55.6725 45.2731 57.1054 43.6703 57.6795 43.0917L64.2882 36.5013C64.7337 36.0604 65.3674 35.4588 65.767 34.9903H77.7766C80.5046 34.9903 80.5322 35.073 80.5276 32.5563V21.1575C86.8929 19.2975 84.3854 10.42 79.0029 11.0216L79.0074 11.017ZM79.283 18.852C78.314 18.8841 77.4046 18.3881 76.8994 17.5615C76.3942 16.7348 76.3759 15.6969 76.8443 14.8519C77.3173 14.0068 78.2038 13.4787 79.1728 13.4695C80.647 13.4557 81.8594 14.636 81.887 16.1102C81.9145 17.5844 80.7526 18.8107 79.2784 18.8566L79.283 18.852Z" fill="var(--fill-0, #C637FF)"/>
<path id="Vector_3" d="M21.6368 15.4029C21.2373 12.5969 18.6425 10.6404 15.8318 11.0354C13.0165 11.4304 11.0555 14.0344 11.455 16.8496C11.8546 19.6649 14.4632 21.6213 17.2785 21.2126C20.0845 20.8084 22.0318 18.209 21.6322 15.3984L21.6368 15.4029ZM16.8559 18.7418C15.4093 18.9071 14.0958 17.8783 13.9167 16.4317C13.7376 14.985 14.7572 13.6624 16.1992 13.4695C17.6643 13.2766 19.0053 14.3099 19.1844 15.7749C19.3681 17.24 18.321 18.5718 16.8513 18.7418H16.8559Z" fill="var(--fill-0, #C637FF)"/>
<path id="Vector_4" d="M69.0599 42.242C67.9118 42.5497 62.1021 48.9931 60.6692 50.3342C58.1892 52.6534 59.1904 52.286 55.5256 52.2814H29.8622C29.3249 52.2768 28.2226 52.1942 27.7587 52.2768C26.2799 52.5294 26.3672 54.7798 28.0803 54.7706H49.6608C50.8687 54.7706 59.2088 54.8762 59.6956 54.6742C60.2421 54.4491 61.7117 52.8371 62.2031 52.3457L67.4846 47.0183C68.3618 46.1503 69.3814 45.2869 70.1759 44.3592C70.9704 43.4269 70.3504 42.1869 69.0645 42.2466L69.0599 42.242Z" fill="var(--fill-0, #C637FF)"/>
<path id="Vector_5" d="M39.401 60.741C40.6456 60.7088 40.9212 59.3356 40.1772 58.5319C39.7363 58.0589 36.7741 58.2656 36.1173 58.2656H23.8276C22.7851 58.2656 21.4853 58.2242 20.4704 58.2656C20.0433 58.3942 19.7723 58.6422 19.4692 58.9545L13.0717 65.4989C12.8926 65.6826 12.2175 66.4128 12.0797 66.5185C10.8489 67.4462 11.299 69.4623 12.9523 69.0352C13.283 68.9479 14.5551 67.5793 14.8444 67.2854L19.0605 63.0235C19.5105 62.5642 20.9066 61.0992 21.3705 60.7547H37.7661C38.3126 60.7547 38.8315 60.7639 39.4102 60.7547L39.401 60.741Z" fill="var(--fill-0, #C637FF)"/>
<path id="Vector_6" d="M57.0457 64.2175H29.7979C29.2881 64.2175 28.5671 64.1946 28.0757 64.2175C26.7484 64.2956 26.156 65.5081 27.2398 66.4587C27.8506 66.9915 31.341 66.7618 32.1906 66.7618H58.8506C60.1733 66.6654 60.6187 65.4575 59.737 64.4747C59.3879 64.0844 57.629 64.2129 57.0365 64.2129L57.0457 64.2175Z" fill="var(--fill-0, #C637FF)"/>
<path id="Vector_7" d="M16.1119 73.3614C13.2324 73.5359 11.0417 76.0159 11.2208 78.8955C11.3999 81.775 13.88 83.9611 16.7595 83.782C19.6345 83.5983 21.8159 81.1229 21.6368 78.2479C21.4577 75.373 18.9823 73.1869 16.1073 73.3614H16.1119ZM16.7136 81.2561C15.2118 81.4076 13.8753 80.3054 13.7375 78.8036C13.5998 77.3019 14.7158 75.9746 16.2222 75.8506C17.7056 75.7312 19.0099 76.8242 19.1476 78.3076C19.2854 79.791 18.197 81.1045 16.7182 81.2561H16.7136Z" fill="var(--fill-0, #C637FF)"/>
<path id="Vector_8" d="M73.8088 79.543C74.2359 82.4272 76.918 84.4203 79.8067 84.0024C82.7047 83.5799 84.7116 80.884 84.2799 77.9861C83.8482 75.0882 81.1478 73.0904 78.2498 73.5313C75.3657 73.9676 73.3817 76.6589 73.8088 79.543ZM78.7963 75.9562C80.3211 75.8046 81.6805 76.9068 81.8412 78.4316C82.002 79.9517 80.9043 81.3203 79.3796 81.4903C77.8457 81.6602 76.4725 80.5534 76.3072 79.0194C76.1464 77.4855 77.2624 76.1124 78.7917 75.9608L78.7963 75.9562Z" fill="var(--fill-0, #C637FF)"/>
</g>
</svg>
