<svg preserveAspectRatio="none" width="100%" height="100%" overflow="visible" style="display: block;" viewBox="0 0 86 96" fill="none" xmlns="http://www.w3.org/2000/svg">
<g id="Group">
<path id="Vector" d="M27.6819 29.8646C24.536 29.4191 24.9448 26.9115 24.9448 24.5004L24.9034 3.1908C24.9034 -0.0194184 27.9851 0.0770728 30.1206 0.0816654H52.9504C55.1456 0.0908506 59.8576 -0.699115 60.2756 2.4514C60.4501 3.76947 60.395 5.28963 60.395 6.65363V25.1755C60.4133 27.6371 60.2801 29.1803 57.5429 29.86C57.5292 33.2447 58.4615 34.0071 55.0308 33.9611V40.23C55.4763 40.23 57.0424 40.129 57.4419 40.4826C58.0252 40.997 57.8185 42.1405 56.9046 42.1865C56.3443 42.214 55.6462 42.2049 55.0262 42.2049C55.0216 43.4449 55.4763 45.2681 54.048 45.608C52.6335 45.3003 53.1387 43.4357 53.1387 42.2049C52.0686 42.2003 50.6036 42.5768 50.2683 41.2588C50.576 39.8397 52.0181 40.2162 53.1387 40.23C53.1387 38.1634 53.1708 36.0186 53.1387 33.9611C51.0353 33.8922 50.6035 34.2918 50.7046 31.674C50.7275 31.1321 50.7046 30.4157 50.7092 29.86H45.9329C45.9329 30.7004 46.0845 32.7671 45.9329 33.4881C45.3037 34.1587 44.4633 33.9611 43.5953 33.9565V47.1189L68.6662 47.1281C70.269 47.1281 73.9155 46.7239 74.3427 48.9605C74.5952 50.2832 74.5034 51.8722 74.5034 53.2179V59.3398H80.9192C86.0262 59.3398 85.273 59.9139 85.2684 64.4008V81.8848C85.2684 83.7862 85.2868 85.7058 85.2501 87.6118C85.2546 89.9264 83.3349 89.7795 81.7091 89.7335C80.7768 89.7106 79.7619 89.8024 78.8526 89.7335V93.6969H80.4554V95.5753C79.84 95.6212 79.2705 95.5891 78.6505 95.5799H66.797C66.7603 95.0793 66.797 94.2205 66.797 93.6969H68.6111V89.7335C67.2196 89.7611 65.8234 89.7105 64.4318 89.7611C61.8186 89.8529 62.2228 86.4728 62.2228 84.7965L62.2136 61.3513C62.2228 60.3639 62.6316 59.3444 63.7751 59.3352C66.6317 59.3168 69.773 59.225 72.6158 59.3352V53.0755C72.6158 51.9733 72.6296 50.8665 72.5975 49.778C72.5653 48.5931 68.8269 49.0294 67.8992 49.0294H43.5953V59.3398H49.4876C51.963 59.3398 54.1949 58.6647 54.2087 61.8979V85.1777C54.2179 88.8563 54.6083 89.7427 50.6541 89.7381H47.7332V93.6969C48.4221 93.6648 48.941 93.6464 49.6299 93.6969V95.5753H35.4848C35.4756 94.9553 35.4848 94.3169 35.4848 93.6969C35.7603 93.6832 36.1323 93.6969 36.417 93.6969C36.7247 93.6602 37.1473 93.6878 37.4642 93.6969V89.7335C35.8705 89.7335 34.0565 89.7932 32.4582 89.6417C31.2917 89.5314 31.0667 88.1078 31.0575 87.1984V63.8956C31.0575 59.4914 30.5523 59.3352 35.4664 59.3398H41.7307V49.0294H16.3107C15.0615 49.0294 12.6596 48.4783 12.6229 50.1087C12.5999 51.1099 12.6137 52.134 12.6137 53.149V59.3398H18.63C20.4348 59.3398 22.9286 58.7703 22.947 61.31V84.2316C22.9516 85.7472 23.4935 89.3294 21.4223 89.6233C19.8884 89.8438 18.2396 89.7106 16.6781 89.7381V93.7015C17.2522 93.7658 17.7252 93.7291 18.2947 93.7015V95.5799H4.58585V93.7015C5.1737 93.697 5.76153 93.6832 6.34479 93.7015V89.7381L3.34584 89.7473C1.93592 89.7473 0.0759159 89.7841 0.0667307 87.745V63.8038C0.0667307 62.5133 -0.273123 60.8186 0.581098 59.8495C1.17813 59.1698 2.00022 59.3398 2.79933 59.3352L10.7583 59.3444L10.7353 50.4715C10.7032 46.8434 13.6378 47.1143 16.2878 47.1189H41.7307V33.9611C38.346 34.1311 39.0762 33.2677 39.09 29.86H34.4423C34.4331 31.201 34.8234 33.0242 33.859 33.9611C33.51 34.0025 32.4583 33.9611 32.0312 33.9611V40.23C32.6052 40.23 33.7579 40.1611 34.2448 40.23C35.4664 41.1164 34.4882 42.361 33.216 42.1268C33.0139 42.09 32.2562 42.1176 32.0312 42.1176C32.0266 42.7192 32.1965 45.066 31.7234 45.3462C29.7394 46.5173 30.139 43.1188 30.1665 42.1176C29.4501 42.0946 28.8576 42.0992 28.1412 42.1176C27.7233 41.8374 27.4845 41.5665 27.5396 41.0337C27.659 39.881 29.3812 40.1565 30.1711 40.2346V33.9657C28.1871 33.828 27.5672 34.4755 27.6682 31.7475C27.6866 31.178 27.6728 30.4432 27.6774 29.8646H27.6819ZM28.1504 1.92784C26.8323 2.15747 26.8277 3.03928 26.8231 4.15069V14.7228H57.2812C57.7083 14.7366 58.0711 14.7412 58.4982 14.7228V4.48134C58.4982 3.53068 58.7278 2.05648 57.3914 1.97381C56.009 1.89114 54.6129 1.92324 53.2305 1.92324H34.0748C32.1597 1.92324 30.0471 1.87272 28.1504 1.92324V1.92784ZM26.8277 16.5782V23.3707C26.8277 24.3902 26.6027 26.7921 27.1354 27.6326C28.0907 28.1653 33.2482 27.9173 34.6719 27.9173H53.8965C54.8242 27.9173 57.4833 28.0689 58.1354 27.6326C58.7784 26.5855 58.4982 24.9367 58.4982 23.6738V16.5782H26.8323H26.8277ZM29.5741 29.8646V32.1241C30.3365 32.193 31.7142 32.2068 32.5133 32.1241C32.5133 31.4214 32.5455 30.5581 32.5133 29.8646H29.5741ZM41.0188 29.8646V32.1241C42.0292 32.1241 43.1222 32.1471 44.128 32.1241V29.8646H41.0188ZM52.5922 29.8646C52.5922 30.6086 52.606 31.3847 52.5922 32.1241C53.6025 32.1379 54.6221 32.1241 55.6325 32.1241C55.66 31.4031 55.6325 30.5948 55.6325 29.8646H52.5922ZM3.33665 61.2044H1.90836V87.8506H21.087V64.1023C21.087 63.2848 21.1375 61.9714 21.087 61.2044C19.1397 61.1768 17.1236 61.2044 15.1718 61.2044H3.33665ZM33.1471 61.2044V87.8506H51.0812C51.2879 87.8552 52.3258 87.8781 52.4544 87.8506V61.2044H33.1425H33.1471ZM64.0966 61.2044V84.0617C64.0966 88.9115 63.4352 87.846 68.3906 87.846H81.452C82.0031 87.8506 82.9262 87.9057 83.4268 87.846C83.4727 87.7128 83.4268 83.5381 83.4268 82.987V61.2044C81.3601 61.1539 79.1051 61.2044 77.0155 61.2044H64.0966ZM40.8443 89.7473C40.3391 89.7381 39.8248 89.7198 39.3196 89.7473V93.7107H44.5597C45.0189 93.7107 45.4874 93.7061 45.9467 93.7107V89.7473H40.8443ZM8.20938 89.7473V93.7107H14.8365C14.8503 92.3927 14.8365 91.0654 14.8365 89.7473H8.20938ZM71.6559 89.7473C71.1967 89.7795 70.9257 89.7703 70.4665 89.7473V93.7107H77.066V89.7473C75.2887 89.7795 73.4425 89.7473 71.6559 89.7473Z" fill="var(--fill-0, #C637FF)"/>
<path id="Vector_2" d="M30.0057 6.48828C29.9873 5.88206 30.0057 5.22534 30.0057 4.60993H37.386V6.48828H30.0057Z" fill="var(--fill-0, #C637FF)"/>
<path id="Vector_3" d="M30.0058 10.7226C30.0288 10.0291 30.0058 9.52396 30.1804 8.84426C32.5409 8.88559 35.0209 8.84426 37.3861 8.84426C37.3907 9.21626 37.432 10.4287 37.3861 10.7226C36.7018 10.7639 35.6455 10.7226 34.9291 10.7226H30.0058Z" fill="var(--fill-0, #C637FF)"/>
<path id="Vector_4" d="M42.9706 25.451C41.1933 25.6531 39.5859 24.3763 39.3792 22.599C39.1726 20.8217 40.4447 19.2097 42.222 18.9984C44.0085 18.7872 45.6251 20.0639 45.8318 21.8504C46.0384 23.6369 44.7571 25.249 42.9706 25.451ZM42.5711 20.785C41.7995 20.8125 41.1978 21.4601 41.23 22.2316C41.2621 23.0032 41.9189 23.6002 42.6905 23.5635C43.4528 23.5267 44.0407 22.8792 44.0085 22.1168C43.9764 21.3544 43.3334 20.7574 42.5711 20.785Z" fill="var(--fill-0, #C637FF)"/>
<path id="Vector_5" d="M52.7253 25.4971C50.9204 25.6991 49.2946 24.3948 49.0971 22.5899C48.8996 20.785 50.2086 19.1593 52.0181 18.971C53.8184 18.7827 55.4303 20.0824 55.6278 21.8827C55.8253 23.683 54.5256 25.2996 52.7299 25.5017L52.7253 25.4971ZM52.0778 20.8402C51.3246 20.9871 50.8286 21.7128 50.9663 22.4706C51.1041 23.2283 51.8298 23.7289 52.5875 23.5957C53.3545 23.4625 53.8643 22.7277 53.7219 21.9607C53.5795 21.1938 52.8401 20.6932 52.0778 20.8402Z" fill="var(--fill-0, #C637FF)"/>
<path id="Vector_6" d="M33.2665 25.4786C31.4846 25.6761 29.8818 24.3902 29.6844 22.6128C29.4869 20.8309 30.7682 19.2281 32.5501 19.0261C34.3321 18.8286 35.9394 20.1099 36.1369 21.8918C36.3344 23.6738 35.0485 25.2811 33.2665 25.4786ZM32.6466 20.8263C31.8842 20.9733 31.3836 21.7127 31.5305 22.475C31.6775 23.2374 32.4169 23.738 33.1793 23.5911C33.9417 23.4441 34.4422 22.7047 34.2953 21.9423C34.1483 21.18 33.4089 20.6794 32.6466 20.8263Z" fill="var(--fill-0, #C637FF)"/>
<path id="Vector_7" d="M70.3102 75.0969C70.1632 74.9545 69.7361 74.4218 69.7637 74.2748C69.9198 73.5538 72.6891 67.7625 73.2219 66.8716C73.3046 66.7338 73.5755 66.72 73.7133 66.7108C74.5584 66.5731 74.6272 66.9267 74.7926 67.6523C74.3012 69.3746 72.8867 71.2713 72.3401 73.214C73.2311 73.214 76.4873 73.067 77.1027 73.3701C78.0533 73.8385 76.9695 75.3036 76.6985 75.8914C76.3127 76.7319 74.4573 81.1132 73.7133 81.3061C72.1381 81.0994 72.5606 80.1717 73.1025 79.0924C73.7684 77.7652 74.2965 76.3828 75.0497 75.1015C73.4837 75.0326 71.8763 75.0739 70.3056 75.1015L70.3102 75.0969Z" fill="var(--fill-0, #C637FF)"/>
<path id="Vector_8" d="M7.59391 74.3208C7.9705 72.9568 10.9603 67.0691 11.5619 66.7155C13.0132 66.6741 12.857 67.7121 12.361 68.7224C11.6216 70.2288 10.8638 71.7352 10.0831 73.2186C11.6354 73.2186 13.2933 73.338 14.8364 73.2186C15.7595 74.1187 14.9374 75.0602 14.469 75.9833L13.0315 78.771C12.7284 79.3589 12.0625 81.0627 11.5573 81.3061C9.79376 81.3475 10.1106 80.3371 10.7215 79.1706C11.4333 77.8112 12.1222 76.4472 12.857 75.1015C11.4241 75.0602 9.57333 75.1888 8.20473 75.1015C7.84651 74.8168 7.76383 74.7617 7.58932 74.3254L7.59391 74.3208Z" fill="var(--fill-0, #C637FF)"/>
<path id="Vector_9" d="M38.6354 74.3208C38.8466 73.4436 39.4941 72.4195 39.9121 71.6066L41.5609 68.3229C41.9053 67.6202 42.1533 66.9772 42.9202 66.7155C43.5816 66.7017 43.6505 67.1793 43.9582 67.6569C43.4117 69.3791 41.8915 71.2713 41.345 73.2186H43.9766C44.6563 73.214 47.0811 73.0762 46.3417 74.5091C45.4921 76.1486 44.6195 77.7836 43.8296 79.4553C43.4162 80.3325 43.2371 81.2786 42.2359 81.3061C41.6986 81.1821 41.5241 80.9387 41.3496 80.4289C41.5103 79.6574 43.453 76.1395 43.9628 75.0969C42.608 75.0969 40.6102 75.1521 39.2278 75.0464C38.9982 75.0281 38.7548 74.5366 38.6446 74.3208H38.6354Z" fill="var(--fill-0, #C637FF)"/>
</g>
</svg>
