<svg preserveAspectRatio="none" width="100%" height="100%" overflow="visible" style="display: block;" viewBox="0 0 72 96" fill="none" xmlns="http://www.w3.org/2000/svg">
<g id="Group">
<path id="Vector" d="M65.7799 12.0076C65.192 12.9215 63.2999 16.6415 62.7212 17.0411C62.3033 17.3304 59.2033 17.1513 58.5374 17.1513H12.6758C11.5782 17.1513 10.3841 17.2018 9.30484 17.0824C8.90069 17.0365 3.65595 7.44253 3.21047 6.63883C2.46188 5.31617 1.60307 4.02566 0.886623 2.68922C0.390624 1.76611 -0.702412 0.668477 0.656994 0.0163292C1.4561 -0.0204115 2.59507 0.0163292 3.41255 0.0163292H70.3587C72.9122 0.0392921 71.144 2.20701 70.5286 3.36434C68.9809 6.26686 67.2725 9.08669 65.7799 12.0168V12.0076ZM22.6555 2.11514H2.8844C3.83047 3.67662 4.71684 5.1233 5.61239 6.71693L9.06143 12.8021C9.48395 13.5323 9.92024 14.3314 10.3611 15.0433C11.6516 15.0938 13.3188 15.0433 14.6368 15.0433H49.1823H61.5639C62.5513 13.4772 63.5019 11.7137 64.4021 10.0971L68.8156 2.11514H22.6463H22.6555Z" fill="var(--fill-0, #C637FF)"/>
<path id="Vector_2" d="M36.0934 12.1178C35.0647 12.1683 34.8442 11.4657 34.8855 10.6206C34.9636 8.98108 34.9407 7.33233 34.8855 5.69277C34.8626 5.01766 35.2484 4.86612 35.8041 4.67783C36.1577 4.65487 36.6629 4.84316 36.8374 5.16004C37.1084 5.66523 36.9981 11.112 36.8787 11.4289C36.741 11.7872 36.4287 11.98 36.0934 12.1178Z" fill="var(--fill-0, #C637FF)"/>
<path id="Vector_3" d="M50.8676 12.0076C49.0306 12.0811 49.7103 7.1027 49.7654 5.75707C49.7976 4.98093 50.2017 4.84776 50.8676 4.68242C51.9056 4.98094 51.8137 5.62389 51.8321 6.58833C51.8596 8.06714 52.5072 11.732 50.8676 12.0076Z" fill="var(--fill-0, #C637FF)"/>
<path id="Vector_4" d="M20.3224 11.6172C20.0193 10.8273 19.707 5.49531 20.7955 4.68242C21.3971 4.71457 21.691 4.78805 22.21 5.10953C22.4396 5.9362 22.7519 11.3141 21.6543 12.0076C21.0572 12.1637 20.7633 11.9938 20.327 11.6172H20.3224Z" fill="var(--fill-0, #C637FF)"/>
<path id="Vector_5" d="M20.3225 62.2965C18.784 62.3424 17.172 62.2965 15.6243 62.2965C13.3234 62.3057 10.6092 62.7052 8.81805 60.9462C7.89035 60.0231 7.41731 58.9301 7.43109 57.6166V27.0208C7.39894 23.8014 9.66768 22.9104 12.4646 22.915H59.4421C64.0347 22.5798 64.3883 24.8302 64.3792 28.6512V48.8999C64.3792 51.7014 64.3332 54.535 64.4021 57.3457C64.4572 59.6328 63.2999 61.4698 61.0266 62.1128C59.4697 62.5583 53.435 62.2597 51.5153 62.2873V62.8568C51.5245 67.1876 48.5669 67.8352 45.0949 67.8306H41.9076V76.9698C41.9076 79.7667 40.2451 79.0548 37.811 79.0502L31.5881 79.0686C29.0668 79.0962 29.8383 76.6759 29.8383 74.5219V67.826H25.9071C25.1585 67.826 24.4053 67.7892 23.6567 67.826C21.3328 66.9212 19.6106 64.8821 20.3179 62.2873L20.3225 62.2965ZM11.8538 25.0001L11.67 25.0185L11.6471 25.069C13.1075 26.3779 14.6644 28.2379 16.1249 29.4503H51.3821C52.714 29.4503 54.4408 29.5054 55.7313 29.4503C56.2641 29.0094 57.2974 27.8659 57.8072 27.3285C58.4455 26.6856 59.4743 25.5742 60.1218 25.0001H17.1398C15.4681 25.0001 13.5025 24.9496 11.8492 25.0001H11.8538ZM62.2436 25.8635C61.6052 26.4192 60.7235 27.4296 60.0897 28.0679L58.3491 29.8085C58.046 30.1116 57.4811 30.6536 57.2377 30.9842C57.178 33.4229 57.2377 36.105 57.2377 38.5758V53.8186C58.0368 54.4386 59.0518 55.6234 59.8095 56.3812C60.2688 56.8359 61.7476 58.5076 62.1518 58.6683C62.5605 58.2091 62.3584 51.8116 62.3584 50.8058V30.5571C62.3584 29.9417 62.4319 26.0702 62.2436 25.8589V25.8635ZM9.64471 26.038C9.50694 26.3687 9.49776 26.5524 9.49316 26.9106L9.48398 54.4294C9.48398 55.4627 9.43805 57.8784 9.64471 58.7786C10.3703 58.3331 11.2843 57.038 12.1844 56.395C12.9009 55.4857 14.0169 54.783 14.5863 53.8323C14.6277 52.4454 14.5863 50.8563 14.5863 49.4464V34.5756C14.5863 33.9281 14.7609 31.1863 14.4118 30.7867C13.5622 29.8223 10.6046 26.6442 9.64931 26.0426L9.64471 26.038ZM21.4569 31.5078H16.6668C16.7173 32.2288 16.6668 33.0693 16.6668 33.8133V53.2399H50.3626H55.1618V33.8821C55.1618 33.1657 55.1986 32.2013 55.1618 31.5124H21.4569V31.5078ZM16.1294 55.2836L12.8825 58.6224C12.46 59.0495 11.6195 59.7706 11.3256 60.216C16.2167 60.2803 21.2732 60.216 26.178 60.216H55.7405C56.2962 60.216 60.2734 60.2436 60.4341 60.1701C60.4847 59.8532 59.6534 59.1598 59.4008 58.9026L57.2285 56.7073C56.8611 56.3353 56.1814 55.6832 55.8829 55.2744H16.134L16.1294 55.2836ZM22.21 62.2965C22.1917 65.9843 23.7302 65.7777 26.8853 65.7777H41.1407C42.9226 65.7777 47.4279 66.2415 48.6909 65.0153C49.467 64.1381 49.4395 63.4079 49.4533 62.2965H22.21ZM31.9417 67.8351V77.0525H39.8226C39.8226 74.0627 39.8869 70.8065 39.8226 67.8351C37.609 67.7754 34.1232 67.6606 31.9417 67.8351Z" fill="var(--fill-0, #C637FF)"/>
<path id="Vector_6" d="M22.3295 38.4242C21.1308 38.7044 19.9321 37.9558 19.652 36.7525C19.3764 35.5538 20.125 34.3552 21.3237 34.075C22.5223 33.7995 23.721 34.5481 23.9966 35.7467C24.2721 36.9454 23.5281 38.1441 22.3249 38.4196L22.3295 38.4242ZM21.8197 35.7559C21.1124 36.1371 21.1629 36.5964 22.0126 36.702L22.132 36.679C22.2606 36.4632 22.2284 36.4127 22.3065 36.1968C22.1733 35.9488 22.1182 35.7835 21.8197 35.7513V35.7559Z" fill="var(--fill-0, #C637FF)"/>
<path id="Vector_7" d="M29.3515 38.4058C28.162 38.6768 26.9817 37.9419 26.697 36.757C26.4168 35.5722 27.1379 34.3827 28.3227 34.0887C29.5214 33.7902 30.7339 34.5296 31.0186 35.7283C31.3033 36.9316 30.5548 38.1348 29.3515 38.4104V38.4058ZM28.8922 35.7559C28.1942 36.0039 28.1023 36.4907 28.8922 36.7019C29.2459 36.6698 29.2229 36.5136 29.3239 36.1968C29.1953 35.9993 29.1173 35.8293 28.8922 35.7513V35.7559Z" fill="var(--fill-0, #C637FF)"/>
<path id="Vector_8" d="M36.2311 38.4288C35.0233 38.6217 33.8843 37.795 33.696 36.5826C33.5077 35.3701 34.339 34.2404 35.5514 34.0567C36.7547 33.8775 37.8799 34.6996 38.0636 35.9029C38.2519 37.1061 37.4298 38.2313 36.2265 38.4242L36.2311 38.4288ZM35.9004 35.7559C35.2345 36.0085 35.207 36.6147 35.9004 36.702C36.5893 36.4632 36.5572 35.9488 35.9004 35.7559Z" fill="var(--fill-0, #C637FF)"/>
<path id="Vector_9" d="M43.3865 38.4288C42.1924 38.6768 41.0213 37.919 40.7595 36.7296C40.4977 35.5401 41.2463 34.3598 42.4312 34.0888C43.6345 33.8133 44.8331 34.571 45.0995 35.7789C45.3659 36.9867 44.5943 38.1762 43.3865 38.4288ZM42.8262 35.7559C42.3026 36.206 42.3118 36.6561 43.042 36.702C43.7217 36.477 43.4003 35.8937 42.8262 35.7559Z" fill="var(--fill-0, #C637FF)"/>
<path id="Vector_10" d="M50.3671 38.3645C49.1868 38.585 48.0524 37.8088 47.832 36.6285C47.6069 35.4528 48.3785 34.3139 49.5542 34.0842C50.7391 33.8546 51.8826 34.6307 52.1077 35.8156C52.3327 37.0005 51.552 38.1395 50.3671 38.3599V38.3645ZM49.8068 35.8064C49.5771 35.8937 49.4577 36.1463 49.5312 36.3805C49.6047 36.6147 49.8481 36.7479 50.0869 36.6928C50.2523 36.6515 50.3854 36.5183 50.4268 36.353C50.4681 36.1876 50.413 36.0085 50.2798 35.8937C50.1512 35.7789 49.9675 35.7467 49.8068 35.811V35.8064Z" fill="var(--fill-0, #C637FF)"/>
<path id="Vector_11" d="M22.0952 44.8033C20.8873 44.9456 19.7943 44.0868 19.6473 42.879C19.5004 41.6711 20.3592 40.5781 21.5624 40.4265C22.7749 40.2749 23.8771 41.1384 24.0241 42.3508C24.171 43.5632 23.3076 44.6609 22.0952 44.8033ZM21.6497 42.1166C21.1032 42.4289 21.1353 42.957 21.8196 43.0351C22.5498 42.8422 22.2972 42.0477 21.6497 42.1166Z" fill="var(--fill-0, #C637FF)"/>
<path id="Vector_12" d="M29.1586 44.7895C27.9829 44.964 26.8852 44.1649 26.6923 42.9938C26.4995 41.8227 27.2848 40.7113 28.4559 40.5046C29.2274 40.3669 30.0128 40.6562 30.5088 41.2624C31.0094 41.864 31.1426 42.6907 30.8624 43.4209C30.5823 44.1511 29.9301 44.6747 29.154 44.7941L29.1586 44.7895ZM29.1586 42.2269C28.0242 41.9237 28.0793 43.2602 29.1586 43.0351C29.5581 42.8055 29.6683 42.4197 29.1586 42.2269Z" fill="var(--fill-0, #C637FF)"/>
<path id="Vector_13" d="M36.323 44.7758C35.1381 45.01 33.9899 44.243 33.7557 43.0581C33.5215 41.8733 34.2884 40.7251 35.4687 40.4863C36.6536 40.2475 37.8064 41.019 38.0406 42.2039C38.2748 43.3888 37.5078 44.5415 36.323 44.7758ZM35.6754 42.1166C35.1105 42.4978 35.432 43.1867 36.0933 43.0352C36.6995 42.6769 36.3781 42.0248 35.6754 42.1166Z" fill="var(--fill-0, #C637FF)"/>
<path id="Vector_14" d="M43.4415 44.7895C42.2474 45.0513 41.0717 44.2935 40.8191 43.0994C40.5665 41.9054 41.3335 40.7343 42.5321 40.4909C43.717 40.252 44.8698 41.0098 45.1178 42.1901C45.3658 43.3704 44.6172 44.5323 43.4415 44.7895ZM42.8261 42.1166C42.2612 42.4886 42.3944 42.9984 43.0419 43.0351C43.7859 42.778 43.4231 42.0937 42.8261 42.1166Z" fill="var(--fill-0, #C637FF)"/>
<path id="Vector_15" d="M50.4084 44.7436C49.6415 44.8998 48.8469 44.6334 48.3326 44.0409C47.8182 43.4485 47.6666 42.6264 47.9284 41.8916C48.1902 41.1522 48.8332 40.6149 49.6047 40.4863C50.7712 40.2888 51.8781 41.0604 52.0985 42.2223C52.3189 43.3842 51.5658 44.5048 50.4084 44.7436ZM49.8114 42.1718C49.5818 42.2453 49.4578 42.4932 49.5358 42.7229C49.6139 42.9525 49.8573 43.0719 50.0869 42.9938C50.312 42.9158 50.436 42.6724 50.3579 42.4473C50.2844 42.2223 50.0364 42.0983 49.8114 42.1718Z" fill="var(--fill-0, #C637FF)"/>
<path id="Vector_16" d="M29.1585 42.2269C29.6683 42.4198 29.5581 42.8055 29.1585 43.0352C29.2779 42.6815 29.2412 42.5851 29.1585 42.2269Z" fill="var(--fill-0, #C637FF)"/>
<path id="Vector_17" d="M29.0209 51.164C28.2309 51.2283 27.4732 50.8609 27.0277 50.2087C26.5822 49.5566 26.5271 48.7115 26.8761 48.0043C27.2252 47.297 27.9278 46.8286 28.7178 46.7873C29.9164 46.7184 30.9497 47.6277 31.0324 48.831C31.1151 50.0296 30.2149 51.0721 29.0163 51.1686L29.0209 51.164ZM28.7453 48.537C28.0748 48.9412 28.332 49.3866 29.0484 49.4693C29.1816 49.2718 29.2229 49.1938 29.324 48.9733C29.1311 48.6473 29.1495 48.5278 28.7453 48.5324V48.537Z" fill="var(--fill-0, #C637FF)"/>
<path id="Vector_18" d="M22.0951 51.1456C20.901 51.2696 19.831 50.4062 19.7024 49.2122C19.5738 48.0181 20.4326 46.9434 21.6267 46.8148C22.8253 46.6817 23.9046 47.5451 24.0332 48.7437C24.1618 49.9424 23.2938 51.0171 22.0951 51.1456ZM21.8195 48.5371C21.0388 48.8494 21.2822 49.3178 22.0124 49.4693C22.5452 49.1708 22.4487 48.5508 21.8195 48.5371Z" fill="var(--fill-0, #C637FF)"/>
<path id="Vector_19" d="M50.3167 51.1089C49.5451 51.2375 48.7644 50.9435 48.273 50.3327C47.7816 49.7265 47.653 48.8998 47.9377 48.1742C48.2225 47.4486 48.8792 46.9296 49.6553 46.8194C50.831 46.6541 51.9241 47.4624 52.1032 48.6381C52.2823 49.8138 51.4878 50.916 50.3167 51.1089ZM49.8344 48.5692C49.6737 48.6243 49.5589 48.7621 49.5314 48.932C49.5038 49.0973 49.5727 49.2672 49.7105 49.3683C49.8436 49.4693 50.0273 49.4877 50.1789 49.4142C50.3993 49.3132 50.5004 49.056 50.4085 48.831C50.3167 48.6059 50.0641 48.4911 49.8344 48.5737V48.5692Z" fill="var(--fill-0, #C637FF)"/>
<path id="Vector_20" d="M36.3781 51.1181C35.2024 51.3798 34.0359 50.6359 33.7695 49.4601C33.5031 48.2844 34.2379 47.1133 35.4136 46.8424C36.5985 46.5668 37.7788 47.3108 38.0452 48.4957C38.3116 49.6806 37.5676 50.8563 36.3781 51.1181ZM35.8362 48.5462C35.657 48.56 35.4963 48.6748 35.432 48.8401C35.3631 49.0101 35.3953 49.1984 35.5147 49.3361C35.6341 49.4739 35.8224 49.529 35.9969 49.4831C36.2357 49.4188 36.3827 49.1846 36.3413 48.9412C36.3 48.6978 36.0796 48.5278 35.8362 48.5462Z" fill="var(--fill-0, #C637FF)"/>
<path id="Vector_21" d="M43.3497 51.1502C42.1556 51.3523 41.0212 50.5486 40.8192 49.3545C40.6125 48.1604 41.4116 47.0261 42.6057 46.8148C43.8043 46.6035 44.9479 47.4072 45.1545 48.6105C45.3612 49.8092 44.5529 50.9527 43.3497 51.1502ZM42.7986 48.5232C42.5506 48.6151 42.4266 48.8906 42.5092 49.1386C42.5919 49.3866 42.8583 49.529 43.1109 49.4555C43.2854 49.405 43.414 49.2627 43.4553 49.0881C43.4966 48.9136 43.4323 48.7299 43.2946 48.6105C43.1568 48.4911 42.9685 48.4589 42.7986 48.5232Z" fill="var(--fill-0, #C637FF)"/>
<path id="Vector_22" d="M18.5911 95.1932C17.6037 95.3539 16.9929 94.5961 17.3419 93.8475C17.5853 93.3286 19.0687 92.0702 19.5234 91.6156L29.3561 81.8012C29.4939 81.6634 29.6638 81.5716 29.8429 81.4889C30.7706 81.42 31.5468 82.4074 31.0462 82.9677C29.921 84.2307 28.5845 85.4385 27.3813 86.6464L21.9345 92.1116C21.2272 92.828 19.4728 94.9406 18.5911 95.1932Z" fill="var(--fill-0, #C637FF)"/>
<path id="Vector_23" d="M53.8162 95.1931C52.645 95.2023 47.6621 89.4891 46.5323 88.3364L42.0454 83.8081C41.2371 82.9906 40.562 82.2099 41.903 81.4842C43.1797 81.4337 45.7608 84.6439 46.7528 85.6681L53.6279 92.7361C54.4316 93.5582 55.272 94.3618 53.8162 95.1885V95.1931Z" fill="var(--fill-0, #C637FF)"/>
<path id="Vector_24" d="M36.3369 95.1932C35.2989 95.3447 34.9407 94.8625 34.9407 93.9164C34.9315 90.1505 34.9132 86.3846 34.9453 82.6232C34.9499 81.9573 35.2117 81.7231 35.8087 81.4889C36.9017 81.5027 37.0257 81.9711 37.0303 82.9539C37.0579 86.7153 37.0211 90.4766 37.0671 94.2333C37.0717 94.7523 36.7961 95.0186 36.3369 95.1932Z" fill="var(--fill-0, #C637FF)"/>
</g>
</svg>
