<svg preserveAspectRatio="xMidYMid meet" width="100%" height="auto" overflow="visible" style="display: block; height: auto;" viewBox="0 0 58 95" fill="none" xmlns="http://www.w3.org/2000/svg">
<g id="Group">
<path id="Vector" d="M15.811 72.6066C12.1966 69.525 13.1152 67.8349 12.2885 63.7062C11.0393 57.4511 8.78425 51.0628 5.4087 45.6298C5.00455 44.973 4.52243 44.3622 4.13206 43.7009C-6.9177 24.8759 5.37666 1.89918 26.9848 0.00703576C34.2089 -0.116964 39.7016 1.39857 45.6168 5.66508C57.5438 14.267 60.9148 31.4341 52.9834 43.8387C48.5194 50.8286 45.2127 59.2652 44.4274 67.5502C44.2162 69.7638 43.293 71.0635 41.5845 72.4V76.0924C41.9887 76.3266 42.076 76.368 42.3332 76.7767C42.3561 77.0523 42.3424 77.3232 42.3332 77.6034C42.1357 77.8835 41.8601 78.058 41.5845 78.2601C41.5937 78.8985 41.5983 79.5001 41.5845 80.1431C42.4112 80.809 42.8383 82.0995 41.5845 82.4118L41.2677 83.7391C40.6752 86.1823 39.077 88.4924 36.9093 89.8013C36.2617 90.1916 35.4581 90.3845 34.8794 90.7611C33.667 93.4432 32.5417 94.2102 29.8826 94.922C26.7597 95.3491 23.4622 93.9254 22.4656 90.7611C18.7135 89.0297 16.2656 87.1376 15.8064 82.5542C14.695 81.6816 14.4745 80.933 15.8064 80.1431C15.8156 79.5139 15.8064 78.8893 15.8064 78.2601C14.5756 77.7182 14.4975 76.6114 15.8064 76.0924C15.7834 74.9489 15.8064 73.7502 15.8064 72.602L15.811 72.6066ZM27.5175 2.3125C26.1351 2.45027 24.941 2.54212 23.577 2.82227C11.8797 5.22419 2.72208 15.5851 2.35008 27.6131C2.20312 32.394 3.22264 37.6708 5.75774 41.7996C10.7269 49.212 13.7994 57.3363 15.0669 66.1494C15.54 69.4331 15.9396 71.0176 19.5218 70.9901H22.4702C22.4243 70.2415 22.2911 69.3826 22.2038 68.6295L18.7135 37.1105C18.6125 36.2334 18.5252 35.2368 18.3553 34.3779C17.2485 33.7579 16.2794 33.1931 15.687 32.0128C15.5125 31.7051 15.3884 31.1494 15.1909 30.883C14.2724 29.7211 13.3631 27.7417 15.5676 27.2457C17.3265 26.8507 18.7181 28.7888 17.4368 30.2538C18.4655 33.5237 22.2314 33.1471 23.0305 30.0701C22.6815 29.5879 22.5574 29.2526 22.6447 28.6602C23.0764 25.7714 27.7425 27.5534 25.7401 30.2538C26.3371 32.0587 28.1834 33.1563 30.0158 32.1827C30.9343 31.6362 31.2374 31.2458 31.591 30.2538C30.9159 29.3077 30.9252 28.1274 31.8896 27.4523C33.5935 26.2628 35.8392 28.5545 34.2272 30.2538C35.7473 33.5237 39.2515 33.0782 39.9771 30.2538C37.6625 26.9747 44.2208 25.7944 43.1691 29.6659C42.9808 30.3502 42.6547 30.3365 42.2505 30.8187C41.2264 32.2286 41.3825 33.5513 38.953 34.3779C38.7922 35.5307 38.6912 36.688 38.5397 37.8407L36.4408 55.3798C35.8392 60.5465 35.0815 65.8096 34.6268 70.9901H37.1113C42.526 71.0176 41.8004 68.1243 42.4984 63.9634C43.6236 57.2077 46.1817 50.8424 49.5573 44.9087C50.2783 43.6366 51.1555 42.4517 51.8536 41.1934C55.3072 35.0117 55.7297 27.4936 53.6722 20.7977C50.113 9.23812 39.4169 2.11501 27.5037 2.3125H27.5175ZM24.3761 32.5363C23.4851 33.5972 22.5069 34.2953 21.1337 34.6214C21.6343 35.9302 23.9123 37.2437 25.189 37.6754C26.2132 38.0382 26.7 38.0566 27.7333 38.277V34.6214C25.6529 34.3274 25.5151 33.3813 24.3761 32.5363ZM32.9459 32.5363C31.931 33.7947 31.1043 34.2402 29.5474 34.6214V38.277C30.6496 38.1576 31.1915 38.0382 32.2707 37.6754C34.0067 36.7845 35.0034 36.1553 36.2618 34.6214C33.8369 33.8085 33.938 33.0139 32.9505 32.5363H32.9459ZM36.2572 37.8362C33.5981 39.3701 32.9688 40.0957 29.5428 40.532V49.7585C32.2019 50.1535 32.0136 49.1064 32.0136 52.3533V68.6157C31.9907 69.153 31.9402 70.4619 32.0366 70.9487L32.1285 71.0176L32.0549 70.9901H32.1559C32.482 70.3655 32.8357 66.1724 32.9551 65.1024L35.8714 41.0142C35.9816 40.1371 36.0551 38.6812 36.2756 37.8729L36.2572 37.8316V37.8362ZM21.1337 37.9877C21.1016 40.6422 21.8181 44.4816 22.112 47.2372L24.7619 70.4894C24.7849 70.6915 24.8125 70.9074 25.0099 70.9946C25.3957 70.8844 25.1844 68.68 25.189 68.2161V52.9504C25.189 50.0203 24.7022 49.7401 27.7333 49.7585V40.532C25.5472 40.1416 23.7148 39.8339 21.8594 38.4791C21.7032 38.3643 21.2853 38.052 21.1383 37.9877H21.1337ZM26.9848 51.545V70.9855H30.273V58.0114C30.273 55.9447 30.2133 53.5841 30.273 51.5404H26.9848V51.545ZM18.1349 73.3093C18.1165 74.2324 18.1349 75.1739 18.1349 76.097C19.0304 76.0832 20.3071 75.8674 20.8077 76.7216L20.8444 76.7813C20.8628 77.1166 20.872 77.2773 20.8444 77.608C20.1969 78.5265 19.1269 78.329 18.1349 78.2647V80.1477C22.3738 80.1339 20.7985 82.4118 19.7789 82.4118C19.2324 82.4118 18.6722 82.4118 18.1349 82.4118C18.5666 85.4567 20.5781 88.0148 23.7194 88.6394C24.3945 88.7725 25.2854 88.7266 25.9881 88.7266H29.0559C32.1559 88.7266 35.0998 89.1399 37.3915 86.4762C38.7326 84.7357 38.6407 84.3453 39.2378 82.4118C38.5351 82.4256 37.791 82.4761 37.093 82.3843C36.1285 82.2511 35.9678 81.0983 36.597 80.4875C37.1665 79.9318 38.457 80.1523 39.2378 80.1477V78.2647C38.131 78.2739 35.0217 78.2968 36.6429 76.3174C37.0149 75.8628 38.5489 76.0373 39.2378 76.097V73.3093H18.1395H18.1349ZM25.189 91.0045L25.1614 91.078C26.3876 92.8875 29.4923 93.1125 31.2972 91.9093C31.7335 91.574 31.9171 91.4225 32.2707 91.0045C30.1352 90.9724 27.297 90.8622 25.1936 91.0045H25.189Z" fill="var(--fill-0, #C637FF)"/>
<path id="Vector_2" d="M7.85637 26.9608C5.84941 28.7565 6.49243 24.9859 6.65317 24.2098C8.72443 14.0785 17.7258 6.64316 28.0546 6.34464C29.1568 6.33086 30.0477 6.14256 29.887 7.57085C29.763 7.74537 29.6895 7.81885 29.5426 7.975C28.771 8.11737 27.8709 8.04849 27.0718 8.09901C18.1484 8.6639 10.2904 15.7962 8.41665 24.4716C8.29265 25.041 8.08141 26.5704 7.85637 26.9653V26.9608Z" fill="var(--fill-0, #C637FF)"/>
<path id="Vector_3" d="M7.23649 31.5534C5.89546 31.6957 5.48664 29.8679 6.8139 29.3673C8.27893 29.4821 8.49945 31.0895 7.23649 31.5534Z" fill="var(--fill-0, #C637FF)"/>
</g>
</svg>
