<svg preserveAspectRatio="none" width="100%" height="100%" overflow="visible" style="display: block;" viewBox="0 0 88 95" fill="none" xmlns="http://www.w3.org/2000/svg">
<g id="Group">
<path id="Vector" d="M78.6911 55.87C76.11 55.87 73.3223 55.9251 70.7551 55.87C70.0202 55.1673 67.0489 51.9571 66.4611 51.7183C65.8457 51.4657 64.5459 51.7137 63.7927 51.5759V43.9293H78.9207C79.4948 46.9833 83.5684 48.0672 85.7499 45.9362C90.4435 41.3482 81.6808 34.294 78.6911 41.9177H63.7927V37.27C67.7102 36.2734 67.352 32.1447 66.9157 28.9299C66.2176 25.1961 61.6066 25.8529 59.0394 25.761V5.81541C59.0394 4.09778 59.2507 2.50876 57.9556 1.17691C56.4814 -0.34324 53.9233 -0.416733 52.4353 1.10801C51.0942 2.46282 51.3285 3.99673 51.3285 5.74651V25.761H35.7137V6.13227C35.7137 3.47775 35.5529 -0.315676 31.6446 0.0379534C28.0991 0.24462 28.1496 3.15632 28.1496 5.71898V25.761C22.4089 25.7518 19.7406 25.0354 19.7681 32.2963C19.7773 34.8727 20.852 36.5765 23.3458 37.2654V41.9131H8.46126C7.17993 36.4617 -1.2612 38.3034 0.245169 43.9247C1.30146 47.8743 6.56911 48.1636 8.46126 43.9293H18.3261C19.9749 43.9293 21.7108 43.8971 23.3458 43.9293V51.5759C21.8119 51.5668 20.7832 51.2223 19.6397 52.4072C18.565 53.5186 17.4535 54.6392 16.3283 55.6909H8.46126C4.902 49.151 -2.01441 54.4738 0.562031 59.0067C2.45418 62.2996 7.29933 61.5878 8.46126 57.6749H14.1974C15.07 57.6749 16.7233 57.9091 17.426 57.3442C18.6063 56.3935 20.085 54.5565 21.2653 53.7206C22.1609 53.6058 22.464 53.6012 23.3458 53.7206V58.745C23.3458 61.6429 23.3596 63.8565 25.6789 66.1023C27.6537 68.0174 29.5504 68.3067 32.1407 68.3894V74.7501C32.1407 76.0544 32.0304 78.1854 32.3105 79.3657C32.9397 82.0294 35.5207 83.2097 38.0513 83.1041V90.319C38.0513 91.4304 38.0008 92.6612 38.1064 93.7634C38.2075 94.8151 39.4245 94.9254 40.0629 94.1217C40.1134 93.07 40.0629 91.6003 40.0629 90.5073V83.1041H47.062V90.2501C47.062 91.931 46.3592 94.7371 48.357 94.6452C49.4914 93.8737 49.0689 91.8575 49.0689 90.4981V83.1041C51.6224 83.2786 53.8773 82.3049 54.8326 79.7423C55.5858 77.5103 55.1403 71.0164 55.2092 68.394C59.0578 68.1047 62.4747 66.7269 63.5585 62.5109C63.8984 61.1928 63.8065 59.466 63.8065 58.0791V53.7298H65.7124C66.3783 54.5887 69.7493 57.8264 70.2499 57.8586C72.9045 58.0469 75.9814 57.7805 78.7048 57.8586C80.0688 61.7761 85.0242 62.217 86.7143 58.6485C89.0841 53.6334 80.8404 49.5001 78.7048 55.8792L78.6911 55.87ZM82.7601 40.6686C83.9496 40.5951 84.9738 41.4906 85.061 42.6755C85.1437 43.865 84.2573 44.8983 83.0678 44.9902C81.8691 45.0866 80.822 44.1819 80.7347 42.9832C80.6475 41.7846 81.5569 40.742 82.7601 40.6686ZM4.7642 44.9259C3.5885 45.1647 2.44042 44.4069 2.19242 43.2358C1.94442 42.0601 2.68837 40.9073 3.86407 40.6502C5.04896 40.3884 6.22004 41.1462 6.47263 42.3357C6.72522 43.5251 5.95828 44.6871 4.7642 44.9305V44.9259ZM4.33712 59.0664C3.12468 59.1124 2.10974 58.1663 2.06382 56.9538C2.02248 55.7414 2.96849 54.7265 4.17634 54.6851C5.38419 54.6438 6.40383 55.5899 6.44516 56.7977C6.48649 58.0102 5.54497 59.0251 4.33253 59.0664H4.33712ZM54.8234 2.11835C57.3264 1.74635 57.0508 4.12072 57.0508 5.67301V20.3464C57.0508 22.0594 56.9911 24.0801 57.0508 25.761H55.6455C54.8831 25.761 54.1116 25.7748 53.3492 25.761C53.317 24.296 53.3492 22.7023 53.3492 21.2281V6.68341C53.3492 5.05764 52.8394 2.60058 54.8234 2.12295V2.11835ZM31.4702 2.11835C34.3084 1.88872 33.6883 4.73614 33.6883 6.72473V21.2511C33.6883 22.684 33.7342 24.3557 33.6883 25.761C33.2658 25.7748 32.7698 25.761 32.3381 25.761H30.1291V6.41247C30.1291 4.5938 29.601 2.88531 31.4702 2.11835ZM52.1965 80.1097C51.5673 80.7067 50.7544 81.0879 49.8864 81.0925H38.4509C34.9284 81.0925 34.189 79.9719 34.1109 76.7341H53.1792C53.216 78.1073 53.1333 79.0718 52.1965 80.1097ZM60.5137 64.0218C57.3126 68.0909 53.5512 64.8026 53.1792 67.3974V74.7639H34.1109C34.1109 72.5457 34.1155 70.3229 34.1109 68.1047C34.019 66.2906 33.6929 66.3687 31.8789 66.3273C28.7192 66.2952 26.1106 65.0414 25.4768 61.5694C25.3115 60.6601 25.3666 59.4476 25.3666 58.5015V37.27C25.8488 37.2838 26.2988 37.2792 26.7764 37.27H61.7949V58.4005C61.7949 60.582 61.9512 62.2032 60.5137 64.0264V64.0218ZM61.9235 35.2585H28.1956C26.06 35.2585 21.7338 36.0071 21.8348 32.8152C21.9267 29.9127 21.1965 27.869 24.8935 27.8093H58.9429C60.9269 27.8093 65.0879 27.0745 65.0006 30.078C64.8491 32.9989 65.988 35.286 61.9235 35.2585ZM84.8681 57.5187C84.6201 58.2627 83.9864 58.8138 83.2148 58.9608C82.0575 59.1767 80.9369 58.4326 80.6935 57.2799C80.4501 56.1272 81.1711 54.9928 82.3193 54.7219C83.0862 54.5427 83.8853 54.7908 84.4134 55.374C84.9416 55.9527 85.1162 56.7747 84.8636 57.5187H84.8681Z" fill="var(--fill-0, #C637FF)"/>
<path id="Vector_2" d="M57.3034 51.7183C57.3171 48.701 56.0495 49.5093 53.2067 49.5093H47.4063C46.5842 49.5966 46.3132 49.7527 46.3086 50.6529C46.304 53.5692 46.226 56.513 46.3546 59.4247C46.4097 60.706 50.9885 60.2055 51.9851 60.2009H54.7774C55.2964 60.2009 55.8933 60.2284 56.4031 60.2009C57.6661 59.9621 57.3034 58.4281 57.2988 57.381V51.7183H57.3034ZM55.1953 58.1801H48.3478V51.576H55.1953V58.1801Z" fill="var(--fill-0, #C637FF)"/>
</g>
</svg>
