<svg preserveAspectRatio="xMidYMid meet" width="100%" height="auto" overflow="visible" style="display: block; height: auto;" viewBox="0 0 96 91" fill="none" xmlns="http://www.w3.org/2000/svg">
<g id="Group">
<path id="Vector" d="M49.6714 15.3577C48.6931 15.3485 45.2303 15.5047 44.5552 15.197C43.2601 14.6091 44.9731 13.0981 45.4278 12.547L55.5223 0.261858C55.6417 0.119488 55.8254 0.0598089 55.9954 0.000105315C56.4087 0.0138831 56.8634 0.252702 56.9414 0.69359C57.0608 1.39166 54.6497 8.13814 54.2685 9.32302L53.249 12.469C52.482 14.9122 52.6106 14.5219 51.0629 16.4967C50.2362 17.5392 48.4635 20.5198 47.2694 20.653C45.5151 20.2534 47.4577 18.3337 48.0088 17.5805C48.4543 16.9559 49.3407 15.9869 49.6714 15.3531V15.3577ZM53.8093 5.02897C52.9551 6.04393 47.32 12.6159 46.8745 13.5344C46.9066 13.6171 46.8791 13.5942 46.925 13.6171H51.0767C51.366 12.6481 53.8644 5.254 53.8047 5.02437L53.8093 5.02897Z" fill="var(--fill-0, #C637FF)"/>
<path id="Vector_2" d="M57.0654 10.7697C57.2675 10.4987 57.3593 10.4299 57.6579 10.2783C59.2147 10.2003 58.783 11.9867 58.7876 13.0614V16.3727C58.7876 17.6862 59.2469 20.0651 58.1538 20.6576C56.6842 20.6208 57.0654 19.0777 57.0654 17.925V12.3037C57.0562 11.826 57.0241 11.2382 57.0654 10.7743V10.7697Z" fill="var(--fill-0, #C637FF)"/>
<path id="Vector_3" d="M37.083 11.0177C37.3219 10.7973 37.3907 10.7238 37.6709 10.5539C38.5802 10.5217 38.7272 10.8891 38.7639 11.6836C38.8053 12.6297 38.8604 19.785 38.7134 20.1845C38.6216 20.4325 38.4333 20.5473 38.1991 20.6576C36.6651 20.7816 37.083 18.8343 37.083 17.6908V12.3266C37.0739 11.9041 37.0325 11.431 37.083 11.0131V11.0177Z" fill="var(--fill-0, #C637FF)"/>
<path id="Vector_4" d="M16.7563 13.6218C17.3671 13.5529 18.5612 13.6126 19.2317 13.6172H30.6856C31.6133 13.6172 34.3046 13.4151 35.0026 13.8605C34.9429 14.1958 34.9751 14.871 35.0026 15.2292C34.1025 15.5093 30.0243 15.3623 28.821 15.3623H17.8493V30.0403C17.8493 30.6786 17.8585 31.34 17.8493 31.9829C17.831 33.2505 16.3108 33.278 16.1822 32.1115C16.0996 31.3629 16.1271 30.5224 16.1271 29.7601V14.1637C16.3567 13.9157 16.4899 13.8238 16.7655 13.6218H16.7563Z" fill="var(--fill-0, #C637FF)"/>
<path id="Vector_5" d="M77.9847 15.3577C76.189 15.3577 61.952 15.468 61.5111 15.2705C60.7671 14.9398 61.0564 13.8927 61.7178 13.6218C62.6133 13.585 63.7339 13.6218 64.6386 13.6218H76.1201C77.1121 13.6218 78.2051 13.5896 79.188 13.6218C79.3763 13.8009 79.5094 13.9662 79.6794 14.1636C79.7207 14.5127 79.6794 15.5965 79.6794 16.0099V27.4454C79.6794 28.6946 80.1524 32.3641 78.9767 32.8968C77.6035 32.9428 77.9801 31.069 77.9801 30.0448V15.3577H77.9847Z" fill="var(--fill-0, #C637FF)"/>
<path id="Vector_6" d="M34.998 13.856C35.269 14.2418 35.3838 14.8801 34.998 15.2246C34.9705 14.8663 34.9383 14.1912 34.998 13.856Z" fill="var(--fill-0, #C637FF)"/>
<path id="Vector_7" d="M65.1713 67.1483H33.8544C31.7418 67.1483 29.0184 67.5203 27.3283 65.9543C25.5556 64.3147 25.8587 62.3261 25.8633 60.1308V31.7028C25.8633 29.356 25.3903 26.6188 27.0941 24.8093C28.1963 23.6382 29.1103 23.3167 30.6718 23.2524H62.4662C63.6833 23.2524 65.0702 23.2019 66.2735 23.3029C68.0784 23.4545 69.773 25.4201 69.9154 27.1745C69.9981 28.1619 69.9567 29.2549 69.9567 30.2423V61.5132C69.9567 64.8934 68.8316 66.9784 65.1759 67.1483H65.1713ZM30.3686 24.97C27.1309 25.7324 27.5947 28.2721 27.5901 30.9404V58.551C27.5901 60.0804 27.512 61.7566 27.7233 63.2584C28.1045 65.9726 32.0955 65.3848 34.0198 65.3848H65.4927C68.5147 65.0909 68.2667 62.5925 68.2621 60.3467V29.3835C68.285 25.3328 67.5318 24.97 63.2607 24.97H32.3021C31.7832 24.97 30.8509 24.9333 30.364 24.97H30.3686Z" fill="var(--fill-0, #C637FF)"/>
<path id="Vector_8" d="M42.5757 62.6385C42.2313 62.689 41.8271 62.7579 41.524 62.9278C40.6009 62.2757 41.1842 61.4168 41.4919 60.5488L44.1694 53.0492C44.5827 51.8918 44.918 50.8217 45.3864 49.6828C43.1085 49.5817 40.7341 49.7884 38.4516 49.6598C36.3757 49.545 38.9568 45.577 39.4068 44.5161L43.2187 35.7673C44.1051 33.7419 44.9868 31.7212 45.9008 29.7096C46.236 28.9702 46.36 28.8416 47.1959 28.8325C49.0008 28.8049 50.8102 28.8187 52.6151 28.8187H55.4993C57.5843 28.8095 57.8782 28.7865 56.6979 31.0001C54.5532 35.0049 52.0365 39.3495 50.126 43.4506H53.699C57.1756 43.4323 57.2399 43.4231 54.9022 46.4496L45.7263 58.5924C44.6745 59.9702 43.6366 61.224 42.5803 62.6477L42.5757 62.6385ZM47.5128 30.5868C46.7826 31.7212 46.1901 33.5674 45.6252 34.8395L41.6618 43.7905C41.0831 45.1132 40.5228 46.615 39.8937 47.8963H44.5919C45.7033 47.8963 47.0994 47.4921 47.5128 48.576C47.274 50.6794 45.2348 55.024 44.5643 57.2835C45.2716 56.0435 46.2911 54.9505 47.1224 53.7794C49.0559 51.4234 51.9814 47.7493 53.6117 45.1683H50.3694C46.507 45.1683 47.5771 44.4243 49.0145 41.6687L53.8046 32.6581C54.1904 31.9416 54.5119 31.2665 54.962 30.5822H47.5128V30.5868Z" fill="var(--fill-0, #C637FF)"/>
<path id="Vector_9" d="M35.315 37.0348C36.1371 37.0302 37.4827 36.9383 38.1991 37.2047C38.1624 37.5032 38.0843 38.1737 38.1991 38.4355C37.6848 39.0371 36.1049 38.8213 35.315 38.8167C35.315 39.5607 35.6043 41.609 34.5894 41.6733C33.06 41.7697 33.6387 39.7628 33.5055 38.8167C32.3023 38.6192 30.626 39.3678 30.6627 37.4894C31.3057 36.7316 32.5962 37.0348 33.5055 37.0394C33.5055 36.4239 33.3769 34.6282 33.7076 34.3848C35.7192 32.9198 35.3058 36.6352 35.315 37.0394V37.0348Z" fill="var(--fill-0, #C637FF)"/>
<path id="Vector_10" d="M83.0916 36.2908C82.32 37.0026 75.4908 36.6581 74.0534 36.6489C73.3002 36.6811 71.7525 34.9038 75.1188 34.9359H80.5565C81.1811 34.9359 82.467 34.8211 82.9584 35.1426C82.9492 35.4182 82.9768 36.0565 83.0916 36.2954V36.2908Z" fill="var(--fill-0, #C637FF)"/>
<path id="Vector_11" d="M22.001 36.6581C21.5372 36.727 20.9126 36.6673 20.4212 36.6581H15.1122C14.3865 36.6627 12.499 36.9383 12.8894 35.5927C12.9996 35.2161 13.1098 35.1426 13.4405 34.9359H18.6714C20.0125 34.9359 22.644 34.371 22.5981 36.0932C22.3868 36.401 22.3225 36.4652 22.001 36.6581Z" fill="var(--fill-0, #C637FF)"/>
<path id="Vector_12" d="M82.9584 35.1381C83.2707 35.4779 83.3947 35.9004 83.0916 36.2908C82.9768 36.052 82.9492 35.4136 82.9584 35.1381Z" fill="var(--fill-0, #C637FF)"/>
<path id="Vector_13" d="M38.199 37.2047C38.5022 37.5721 38.4976 38.0681 38.199 38.4355C38.0842 38.1737 38.1623 37.5032 38.199 37.2047Z" fill="var(--fill-0, #C637FF)"/>
<path id="Vector_14" d="M83.0916 44.6263C83.7759 41.4024 85.6037 39.2484 89.1124 38.9453C93.6453 38.509 97.0898 43.7078 95.2206 48.0616C93.0529 53.1088 85.6588 53.0307 83.6197 47.9008C83.3763 47.3956 83.2615 46.9456 83.0961 46.4082H76.965C75.8996 46.4082 74.8249 46.4266 73.764 46.3899C72.7261 46.3531 72.7123 44.6906 73.8513 44.6723C76.8594 44.6217 80.1339 44.484 83.0961 44.6263H83.0916ZM89.0481 40.7594C86.4993 40.9844 84.6117 43.2347 84.8367 45.7836C85.0618 48.3325 87.3076 50.2201 89.861 49.9997C92.4145 49.7792 94.3021 47.5242 94.077 44.9753C93.852 42.4219 91.6016 40.5343 89.0481 40.7594Z" fill="var(--fill-0, #C637FF)"/>
<path id="Vector_15" d="M12.6872 47.2946C11.2543 51.4141 6.32186 53.3292 2.79935 50.7206C-2.11013 47.0879 -0.217981 40.0934 5.79831 39.1106C9.73875 38.6559 11.9432 41.2737 12.9582 44.6263H19.149C19.7001 44.6263 22.2627 44.4609 22.6164 44.7595C23.1124 45.182 22.9608 46.2934 22.2398 46.3623C21.4223 46.4403 20.5727 46.4082 19.7506 46.4082H15.3417C14.5518 46.4082 13.7435 46.3623 12.9582 46.4082L12.6872 47.2992V47.2946ZM6.03712 40.8604C3.46528 41.1129 1.5961 43.4138 1.87165 45.9811C2.14721 48.5484 4.46646 50.3992 7.03371 50.1006C9.56882 49.8067 11.3921 47.5242 11.1165 44.9845C10.8456 42.4494 8.57682 40.6032 6.04171 40.8558L6.03712 40.8604Z" fill="var(--fill-0, #C637FF)"/>
<path id="Vector_16" d="M58.2962 53.1409C58.7233 52.6954 59.7429 51.6253 60.2389 51.4141C62.8612 51.4233 59.9955 53.7977 59.5592 54.3855C59.9587 54.7438 61.387 55.9745 61.3457 56.3144C61.0609 58.8357 58.5809 55.8092 58.2916 55.5153C57.791 56.0343 57.0424 56.9574 56.4775 57.2834C55.6003 57.4488 54.8931 56.5991 55.5452 55.8505C56.0091 55.3178 56.5326 54.8494 57.0608 54.3809C56.7347 53.9722 55.288 52.7552 55.3386 52.374C55.6417 50.1144 57.5889 52.4842 58.287 53.1363L58.2962 53.1409Z" fill="var(--fill-0, #C637FF)"/>
<path id="Vector_17" d="M21.854 55.9792H16.2556C15.1075 55.9792 12.3979 56.4384 12.7469 54.8172C12.8158 54.4912 13.1556 54.3212 13.4404 54.188C14.3497 54.1651 21.7713 54.1192 22.0561 54.2432C22.993 54.6565 22.6853 55.7082 21.854 55.9746V55.9792Z" fill="var(--fill-0, #C637FF)"/>
<path id="Vector_18" d="M73.686 54.1881C73.9799 54.234 78.0076 54.2294 78.3016 54.1881C79.2293 54.2845 82.2833 53.9355 82.8941 54.4912C83.2478 54.8127 83.2432 55.4924 82.8941 55.8185C82.5175 56.1629 81.4521 55.9838 80.9882 55.9838H77.9893H75.321C73.9937 55.9884 71.95 55.8001 73.686 54.1835V54.1881Z" fill="var(--fill-0, #C637FF)"/>
<path id="Vector_19" d="M16.1179 76.9948C16.0674 76.5539 16.1179 75.6721 16.1179 75.1807V63.2676C16.1179 62.0414 15.6403 58.6841 16.7563 58.2479C18.2673 58.055 17.8447 60.0023 17.8447 61.0953V75.663H29.1838C30.061 75.663 34.2908 75.5389 34.8235 75.7456C35.6548 76.0671 35.3287 77.1096 34.6444 77.3806C33.68 77.5 31.9624 77.3806 30.9152 77.3806H18.6209C17.7116 77.3898 16.816 77.624 16.1179 76.9902V76.9948Z" fill="var(--fill-0, #C637FF)"/>
<path id="Vector_20" d="M77.9847 75.663V61.1045C77.9801 59.9701 77.5622 58.528 78.793 58.2525C80.134 58.3122 79.6839 59.9977 79.6794 61.0953V72.5859C79.6794 73.8397 79.6885 75.1027 79.6702 76.3565C79.6518 77.8123 78.3154 77.3944 77.0891 77.3944H61.7178C60.3813 77.1831 60.6798 75.7365 61.6305 75.6814C62.2046 75.6492 62.797 75.6722 63.3711 75.6722H77.9893L77.9847 75.663Z" fill="var(--fill-0, #C637FF)"/>
<path id="Vector_21" d="M41.524 62.9278C41.8271 62.7579 42.2313 62.689 42.5757 62.6385C42.268 63.0013 41.9787 63.1253 41.524 62.9278Z" fill="var(--fill-0, #C637FF)"/>
<path id="Vector_22" d="M38.1991 79.9524C37.5056 79.9524 37.2805 79.7136 37.1979 79.0339C36.9407 76.9764 36.9958 73.1094 37.1428 70.9555C37.1979 70.3585 37.3816 70.2024 37.9281 70.1151C38.493 70.0692 38.6216 70.2529 38.9293 70.6616C38.9614 71.5939 38.9982 78.9788 38.8696 79.3186C38.7548 79.6217 38.4884 79.8284 38.2036 79.9524H38.1991Z" fill="var(--fill-0, #C637FF)"/>
<path id="Vector_23" d="M57.3869 79.6586C56.9138 78.8365 56.923 71.2587 57.2445 70.6066C57.3869 70.3127 57.6348 70.2208 57.9242 70.1152C59.2331 70.1106 58.7738 71.4883 58.7738 72.3058L58.783 76.8525C58.783 77.8858 59.2514 79.4749 58.2916 79.9525C57.8829 79.9112 57.7313 79.8744 57.3823 79.6631L57.3869 79.6586Z" fill="var(--fill-0, #C637FF)"/>
<path id="Vector_24" d="M42.4334 87.7966C41.6756 88.6738 40.9178 89.5647 40.183 90.4602C39.4022 91.2639 38.5434 90.5429 38.6674 89.9964C38.8695 89.1284 39.1956 88.2466 39.4665 87.3832L42.5114 77.6745C42.5573 77.5229 43.0166 75.8604 43.0763 75.7915C43.8754 74.873 47.6367 70.6892 48.5093 70.3952C49.2625 70.4044 49.4554 70.8866 49.4922 71.5342C48.7619 72.7512 46.7458 74.2117 45.7997 75.4792H49.235C50.4153 75.4746 53.1984 75.4838 51.0445 77.4495C48.1879 80.9123 45.2486 84.3107 42.4334 87.8011V87.7966ZM44.5643 77.183C44.1923 78.0556 43.9213 79.0706 43.6504 79.98L42.6171 83.4244C42.4012 84.1455 42.0154 85.041 41.8501 85.7069C42.5573 84.94 43.2325 84.0628 43.8846 83.2453C45.2394 81.6884 47.8985 78.8364 48.9227 77.183C47.4898 77.2106 46.0064 77.183 44.5689 77.183H44.5643Z" fill="var(--fill-0, #C637FF)"/>
</g>
</svg>
