<svg preserveAspectRatio="none" width="100%" height="100%" overflow="visible" style="display: block;" viewBox="0 0 96 61" fill="none" xmlns="http://www.w3.org/2000/svg">
<g id="Group">
<path id="Vector" d="M16.1732 13.1163C16.4028 11.8533 20.2469 8.60172 21.3812 7.76128C30.8787 0.615213 45.0239 -1.07026 56.4365 0.587661C64.6434 1.78173 74.398 5.55685 79.5601 12.4274C79.381 12.7488 79.459 13.1025 79.5601 13.4423C79.1284 13.7362 78.5176 14.0348 78.1181 13.5801C73.8791 8.79004 69.4426 6.00691 63.2564 4.11936C48.6198 -0.307893 28.3758 1.35462 17.8449 13.7638C17.2387 14.4756 16.3936 14.021 16.1732 13.1117V13.1163Z" fill="var(--fill-0, #C637FF)"/>
<path id="Vector_2" d="M56.0367 9.80498H45.9836C44.9319 9.80498 39.9306 9.92898 39.329 9.69476C38.5712 9.40083 38.4793 8.25728 39.5034 7.91743C40.7939 7.95876 42.3463 7.91743 43.6597 7.91743H51.6784C52.4178 7.91743 55.8806 7.75208 56.3812 8.04601C57.1573 8.50527 56.7945 9.57534 56.0321 9.80038L56.0367 9.80498Z" fill="var(--fill-0, #C637FF)"/>
<path id="Vector_3" d="M79.5601 12.4228C79.73 12.8223 79.7667 13.0428 79.5601 13.4378C79.459 13.0979 79.3809 12.7443 79.5601 12.4228Z" fill="var(--fill-0, #C637FF)"/>
<path id="Vector_4" d="M7.85611 25.8744C7.93418 21.0063 11.4153 18.3059 15.916 17.741C15.9665 17.741 16.0217 17.7364 16.0722 17.7364H78.0308C79.1008 17.741 80.102 17.7318 81.1629 17.8558C85.2228 18.3288 88.0656 21.8973 88.0748 25.8744C88.8418 26.026 89.6041 26.2418 90.3665 26.4164C92.1346 26.8297 95.4184 27.0226 95.919 29.2041C96.1486 30.2006 95.0555 39.5374 94.757 40.8646C94.1646 43.5283 90.2746 42.9129 88.1344 43.3722L88.0748 43.386C88.061 50.3437 85.8887 51.6343 79.8173 54.1923L71.6333 57.6689C69.4748 58.6885 67.2015 59.6621 64.8638 60.1397C58.6914 60.1397 56.1746 58.0134 53.1206 52.5987L50.6866 48.346C50.1309 47.3769 49.5889 46.3115 48.9 45.4389C48.4959 44.9245 47.2421 45.0072 46.8977 45.5445C45.0744 48.3643 43.5129 51.3725 41.8183 54.275C39.9123 57.8894 35.9719 60.103 31.9258 60.1857C29.6709 60.2316 28.1324 59.3911 26.1024 58.5369L15.8518 54.275C10.1064 51.9098 7.83315 50.1417 7.85611 43.3906C6.57478 43.2252 3.37826 42.9405 2.38167 42.3343C1.10034 41.5627 1.21059 39.8037 1.03607 38.4994L0.333393 32.9286C-0.158013 28.731 -0.805496 27.9503 4.08102 26.7654L7.85611 25.8698V25.8744ZM16.1732 19.6698C10.3315 20.074 9.7436 23.6884 9.7436 28.3682V41.7281C9.7436 49.8707 10.5197 49.9258 17.4224 52.8421L25.0231 56.0202C26.4744 56.6126 28.3482 57.522 29.7811 57.9996C32.9224 59.0513 37.2394 57.3566 39.2556 54.8399C40.0271 53.903 40.661 52.5803 41.2672 51.5149L44.1696 46.5089C44.5416 45.8614 45.0974 44.7683 45.5888 44.2586C46.7323 43.115 48.9781 43.0094 50.1768 44.0978C51.0218 44.8648 51.6464 46.3574 52.2526 47.3356C55.5776 52.7319 57.2035 58.7298 64.8226 58.2614H64.8684C66.632 57.8113 68.12 57.1178 69.7963 56.4105L80.6624 51.7537C85.8337 49.6089 86.1872 48.176 86.1826 42.5869V29.0617C86.1826 27.6242 86.3388 25.53 86.0265 24.1982C85.0024 19.7801 80.993 19.6698 77.4659 19.6698H20.4765C19.0988 19.6698 17.5418 19.6331 16.1732 19.6698ZM7.85611 27.7896C6.79063 28.0284 2.35872 28.9193 1.81679 29.5347C1.82598 30.1318 1.97295 31.0457 2.05561 31.6611L2.98333 39.2848C3.02466 39.6384 3.06603 39.9966 3.13951 40.3457C3.34159 41.3147 6.81359 41.3239 7.85151 41.4341C7.90662 40.2309 7.85151 38.8669 7.85151 37.659V30.0353C7.85151 29.7781 7.89285 27.8584 7.85151 27.7941L7.85611 27.7896ZM88.0702 27.7896C88.0426 29.2913 88.0702 30.8666 88.0702 32.373V41.4341C89.3469 41.3239 92.7684 41.4938 92.998 40.1804C93.4435 36.9793 93.8293 33.4338 94.137 30.2007C94.2013 29.5118 94.0314 29.2546 93.3517 29.0663C91.9923 28.6897 89.425 27.9273 88.0656 27.7896H88.0702Z" fill="var(--fill-0, #C637FF)"/>
<path id="Vector_5" d="M63.9132 56.3692C59.6696 56.8239 57.2953 52.7181 55.6098 49.5722C54.7189 47.9418 52.3721 43.4365 51.031 42.5272C49.1848 41.2688 46.071 41.2964 44.413 42.8762C43.5956 43.6524 43.0858 44.7775 42.5118 45.7466L39.646 50.6607C39.1316 51.5562 38.6035 52.4931 38.0478 53.3611C36.4909 55.7906 32.7204 56.9801 30.0062 56.1442C28.7708 55.763 27.517 55.0971 26.3413 54.5735C23.4893 53.3106 20.6464 52.1257 17.7531 50.9408C11.7505 48.4838 11.4429 47.6892 11.4566 41.5811L11.4428 30.9033C11.4199 26.3107 11.6449 22.2784 17.2066 21.4196C18.2537 21.3553 20.0999 21.4196 21.1975 21.4196H76.4601C79.156 21.4196 81.163 21.2681 83.0735 23.6333C84.6212 25.553 84.4191 27.514 84.4191 29.8195V41.4617C84.4237 48.0199 83.7485 48.4195 78.2788 50.7984C75.6564 51.9374 73.0157 53.0304 70.3658 54.1097C68.7216 54.771 65.6262 56.5851 63.9132 56.3738V56.3692ZM19.8611 23.298C14.8047 23.2842 13.3396 24.2992 13.3396 29.4613V44.3137C13.3396 47.579 16.0676 48.1852 18.5935 49.2369L23.8842 51.446L28.3252 53.4024C31.0486 54.5919 33.5562 55.4461 36.128 52.9248C36.973 52.0935 40.4496 45.5675 41.1844 44.2769C41.5564 43.6248 41.9055 42.9543 42.3694 42.3572C44.8356 39.2159 50.016 38.8485 52.8955 41.6408C53.961 42.6741 54.2504 43.4457 54.9393 44.6673L57.8326 49.7467C58.9256 51.6572 59.5043 53.0947 61.649 54.1189C63.2105 54.748 64.198 54.7526 65.7273 54.0959L76.6439 49.439C82.008 47.1335 82.5867 47.5882 82.5913 41.7878V30.9722C82.5913 28.0835 82.9587 23.3577 78.683 23.321C77.8885 23.3026 77.0894 23.3026 76.2857 23.3026H19.8611V23.298Z" fill="var(--fill-0, #C637FF)"/>
<path id="Vector_6" d="M21.2617 39.9232C19.4293 38.7934 22.2262 36.9426 23.209 35.9781C24.2469 34.9586 31.1357 27.762 31.9991 27.4038C32.688 27.3533 33.1565 27.7023 33.0371 28.4279C32.6834 30.5773 32.0359 32.6944 31.6455 34.8392C32.4262 34.8438 34.7409 34.6922 35.3426 34.9402C36.904 35.5924 34.9385 37.0023 34.4654 37.4616C32.362 39.5099 30.2769 41.5949 28.2287 43.6937C27.5398 44.4009 25.8405 46.509 24.8944 46.7616C24.3571 46.6467 23.9162 46.3436 23.9897 45.7512C24.2285 43.7993 24.7567 41.8521 25.0966 39.9186C24.1413 40.0013 22.2951 39.9186 21.2617 39.9186V39.9232ZM30.4469 31.3993C29.882 31.8632 29.1702 32.6623 28.6375 33.2042L25.3399 36.5384C24.8485 37.0436 24.132 37.5993 23.7325 38.1459C28.3434 38.2101 27.0943 38.573 26.4422 42.8119L26.4834 42.913C26.4192 42.9451 28.8717 40.4605 28.9727 40.3595L32.6468 36.6211C31.6456 36.6303 29.5881 37.039 29.6202 35.5235C29.6294 34.954 30.6031 31.5601 30.4469 31.3993Z" fill="var(--fill-0, #C637FF)"/>
<path id="Vector_7" d="M64.5098 39.5971C63.8438 39.5879 60.528 39.8497 60.1974 39.2159C59.6049 38.0815 61.5614 36.837 62.3834 36.0057L67.3251 31.0549C67.9221 30.4579 70.6317 27.6472 71.1277 27.4038C72.432 27.3165 72.2115 28.258 72.0691 29.1674C71.7568 31.1422 71.2747 33.0756 70.9624 35.0505C73.9475 35.0413 76.9052 34.4626 73.6031 37.7693L70.5583 40.7636C69.6811 41.6362 65.3043 46.3207 64.5098 46.385C64.0918 46.3069 63.5637 46.0635 63.6326 45.5721C63.9036 43.5973 64.2296 41.5719 64.5098 39.5971ZM63.2055 37.8106C64.0276 37.8106 65.5844 37.5626 66.2182 38.1459C66.2182 38.4168 66.2641 39.023 66.3606 39.2573L66.4616 39.3124C66.4341 40.2538 66.0988 41.7097 65.9151 42.6512C67.6787 41.1448 70.1862 38.5913 71.7982 36.8783C70.99 36.8507 70.2092 36.9242 69.3871 36.8783C68.3584 35.7807 69.4927 32.5245 69.8188 31.1008C68.2665 32.5704 66.8428 34.1962 65.3181 35.7026C64.6154 36.3961 63.8485 37.062 63.2055 37.8152V37.8106Z" fill="var(--fill-0, #C637FF)"/>
<path id="Vector_8" d="M66.2185 38.1459C66.6227 38.5133 66.5722 38.8072 66.4619 39.3124L66.3609 39.2573C66.2599 39.023 66.2185 38.4168 66.2185 38.1459Z" fill="var(--fill-0, #C637FF)"/>
</g>
</svg>
