<svg preserveAspectRatio="none" width="100%" height="100%" overflow="visible" style="display: block;" viewBox="0 0 95 96" fill="none" xmlns="http://www.w3.org/2000/svg">
<g id="Group">
<path id="Vector" d="M88.7647 0.0903639C87.3318 -0.0336359 85.6923 0.0214709 84.2227 0.0214709H8.58276C8.09595 0.0168784 7.48054 -0.0244549 7.00291 0.0214709C2.91092 0.159249 -0.0604901 3.42458 0.0818801 7.43391C0.109436 8.20087 0.0864772 9.01835 0.0864772 9.7899V82.5732C0.0864772 86.3345 -0.66671 90.67 2.27255 93.4577C4.49995 95.5748 6.48395 95.4141 9.34513 95.4095H88.0942C94.5192 94.9962 94.9509 90.4311 94.9509 85.1588V12.0678C94.9509 10.2905 94.9693 8.49939 94.9326 6.71746C94.8683 3.53021 91.9428 0.361322 88.7647 0.0857669V0.0903639ZM92.7832 10.3135V86.7846C92.7878 91.5609 91.6121 93.2556 86.7073 93.228H45.0387H10.3325C5.2761 93.2326 2.34144 93.3153 2.33225 87.3036V9.94146C2.33225 8.74739 2.29092 7.47524 2.43329 6.29495C2.99818 1.6748 8.08676 2.28103 11.3613 2.28562H50.21H84.3972C85.6647 2.28562 87.2446 2.20296 88.4708 2.3591C92.8935 2.93318 92.7832 7.02058 92.7787 10.3181L92.7832 10.3135Z" fill="var(--fill-0, #C637FF)"/>
<path id="Vector_2" d="M9.66209 16.4997C9.55646 18.0933 12.1605 18.7409 11.9216 15.797C11.9033 15.5812 11.9262 15.2092 11.9216 15.0346C11.9033 11.829 11.6323 11.8841 14.893 12.0081C18.8427 12.1551 17.6302 9.87257 16.7806 9.80368C16.0596 9.74857 13.327 9.65672 12.6289 9.78531C8.82164 9.92768 9.81824 14.0794 9.6575 16.4997H9.66209Z" fill="var(--fill-0, #C637FF)"/>
<path id="Vector_3" d="M78.6519 9.78531C77.6369 10.0471 77.1271 11.2503 78.1513 11.852C78.6381 12.1367 82.4683 12.0081 83.2858 12.0081V15.1678C83.2858 16.2471 82.9873 18.2862 84.6268 18.0795C85.3111 17.8545 85.4857 17.5468 85.5316 16.8625C85.5867 16.0175 85.6372 11.333 85.4214 10.7497C84.8243 9.16071 80.1812 9.77153 78.6519 9.7899V9.78531Z" fill="var(--fill-0, #C637FF)"/>
<path id="Vector_4" d="M72.5987 27.0213C67.4734 20.7846 59.6982 16.5089 51.7163 15.4939C49.769 15.2459 48.01 15.2459 46.0766 15.2505C38.3243 15.7695 30.5352 18.7317 25.0058 24.3117C23.1044 26.2314 21.2858 28.1281 19.8575 30.452C11.623 43.8118 13.4279 61.3417 25.5156 71.8909C32.5514 78.0817 40.0052 80.0519 49.0847 80.0335C58.0311 79.2849 66.238 76.1574 72.2084 69.2409C82.9275 56.8226 83.0699 39.7611 72.6033 27.0213H72.5987ZM55.4041 76.9152C53.3466 77.4479 51.4866 77.6546 49.3649 77.8475C47.808 77.8475 46.0306 77.9026 44.5013 77.7326C29.8096 76.1115 18.4797 65.4842 17.1111 50.4894C15.7747 35.7105 25.7222 22.2312 39.8949 18.4423C41.9938 17.882 43.7757 17.657 45.9112 17.4595C55.8128 17.1886 64.4193 20.8489 70.8995 28.4174C85.3432 45.286 77.0536 71.3168 55.4041 76.9152Z" fill="var(--fill-0, #C637FF)"/>
<path id="Vector_5" d="M24.2573 45.7499C25.3182 46.7419 26.1127 45.5432 26.1632 44.3767V41.0838C26.1632 39.2605 26.1356 37.6623 26.797 35.9171C28.4273 31.6231 32.4413 29.0237 36.9833 29.0329L41.7826 29.042C42.4761 29.042 43.3349 29.0742 44.01 29.0099C45.1949 28.8997 45.2178 26.9019 43.8446 26.833C42.8343 26.7825 41.8607 26.8192 40.8549 26.8146C35.6285 26.81 31.8993 26.4013 27.665 30.4703C25.0518 32.9825 23.8715 36.3305 23.8761 39.9494L23.8853 43.2928C23.8853 43.9909 23.7199 45.2447 24.2573 45.7499Z" fill="var(--fill-0, #C637FF)"/>
<path id="Vector_6" d="M48.9746 28.918C49.4797 29.2579 58.1965 28.8537 60.3137 29.2625C63.974 29.9743 66.8856 32.5508 68.0751 36.0779C68.8375 38.3833 68.5298 40.8863 68.5941 43.279C68.6262 44.4226 68.2313 46.3974 69.9856 46.2413C70.3852 46.0484 70.6424 45.8509 70.7939 45.4192C71.0787 44.6063 70.9593 38.4568 70.6516 36.854C69.8203 32.5002 66.4218 28.7711 62.2104 27.4346C60.2953 26.8284 58.4261 26.8146 56.4421 26.8146H53.0436C52.047 26.8146 50.2789 26.7457 49.3649 26.8146C48.2214 27.0626 48.0928 28.3256 48.9746 28.918Z" fill="var(--fill-0, #C637FF)"/>
<path id="Vector_7" d="M36.9788 40.0918C34.3702 40.2296 32.3632 42.4524 32.4964 45.061C32.6296 47.6696 34.8524 49.6811 37.461 49.5525C40.0742 49.4239 42.0903 47.1965 41.9571 44.5833C41.824 41.9702 39.5965 39.9586 36.9834 40.0964L36.9788 40.0918ZM37.5988 47.2562C36.7124 47.3894 35.8214 47.0404 35.2657 46.3331C34.71 45.6305 34.5768 44.6798 34.9167 43.8485C35.2565 43.0173 36.0143 42.434 36.9053 42.3192C38.2601 42.1447 39.5047 43.0908 39.693 44.4456C39.8813 45.7958 38.949 47.0496 37.5988 47.2562Z" fill="var(--fill-0, #C637FF)"/>
<path id="Vector_8" d="M57.0391 40.179C54.4811 40.6199 52.7589 43.0494 53.1951 45.6075C53.6269 48.1701 56.0517 49.897 58.6144 49.4698C61.1862 49.0427 62.9223 46.6041 62.486 44.0368C62.0497 41.465 59.611 39.7382 57.0391 40.179ZM58.1873 47.2562C57.2963 47.3802 56.4146 47.0128 55.868 46.301C55.3261 45.5891 55.2067 44.6384 55.5557 43.8118C55.9094 42.9851 56.6763 42.4156 57.5673 42.3146C58.9221 42.163 60.1483 43.1275 60.3183 44.4823C60.4882 45.8371 59.5375 47.0725 58.1827 47.2562H58.1873Z" fill="var(--fill-0, #C637FF)"/>
<path id="Vector_9" d="M70.9042 51.0268C70.9455 50.1955 70.3852 49.6536 69.5448 49.6949C68.2083 50.1633 68.5895 51.7248 68.5941 52.9465V56.5057C68.6125 61.6678 67.3082 65.8976 61.9624 68.0836C59.8498 68.947 57.8153 68.823 55.5971 68.823H51.7669C51.0183 68.823 50.0538 68.7679 49.3282 68.8598C48.1893 69.0067 48.0928 70.458 49.0802 71.0367C49.2823 71.0367 49.5165 71.0504 49.7186 71.0367H55.4823C56.805 71.0367 58.2654 71.101 59.5605 70.9724C65.462 70.3753 70.2888 65.3373 70.8078 59.4725C71.0512 56.7491 70.771 53.7823 70.9042 51.0314V51.0268Z" fill="var(--fill-0, #C637FF)"/>
<path id="Vector_10" d="M43.0408 68.8185C36.8914 68.7587 30.9394 69.5762 27.4031 63.041C26.1539 60.7952 26.1585 59.1235 26.1585 56.6711V52.005C26.1585 50.7879 26.2044 49.8189 24.6659 49.9337C24.1056 50.1955 23.9035 50.4068 23.8989 51.0727C23.876 53.5343 23.8806 56.0051 23.8989 58.4668C24.0229 63.9457 27.8348 68.823 33.0749 70.3753C36.6388 71.4316 40.4552 70.931 44.1247 71.0321C45.4152 70.4534 45.3876 68.8368 43.0408 68.8139V68.8185Z" fill="var(--fill-0, #C637FF)"/>
<path id="Vector_11" d="M52.1343 58.3795C51.7118 55.7801 49.2593 54.0165 46.6599 54.4391C44.0605 54.8616 42.297 57.314 42.7195 59.9134C43.142 62.5128 45.5944 64.2764 48.1938 63.8539C50.7932 63.4313 52.5568 60.9789 52.1343 58.3795ZM47.9183 61.6173C46.5681 61.8836 45.2592 61.0156 44.979 59.67C44.6989 58.3244 45.5577 57.0063 46.8987 56.7124C48.2627 56.4139 49.6037 57.2865 49.8885 58.6504C50.1732 60.0144 49.2869 61.3509 47.9183 61.6173Z" fill="var(--fill-0, #C637FF)"/>
<path id="Vector_12" d="M83.9057 77.7143C82.6106 77.9255 82.8862 79.3492 82.8862 80.378V83.5377H80.002C76.034 83.5101 77.2235 85.6319 78.6472 85.7283H81.8023C82.7208 85.7375 84.8748 85.8891 85.0217 84.4883C85.2146 82.6421 85.0814 80.6719 85.0906 78.8073C85.0906 78.0817 84.6084 77.6454 83.9011 77.7097L83.9057 77.7143Z" fill="var(--fill-0, #C637FF)"/>
<path id="Vector_13" d="M17.249 83.7306C15.7426 83.3034 13.5198 83.6708 11.9307 83.5377V80.5938C11.9399 79.5283 12.2201 78.0817 10.7137 78.1138C9.62985 78.3251 9.65741 79.1058 9.65282 80.0335C9.62526 84.3138 9.27622 86.082 14.6128 85.8799C15.2787 85.8523 16.1146 85.9212 16.7943 85.8753C18.1399 85.4436 18.0021 83.9418 17.2581 83.7306H17.249Z" fill="var(--fill-0, #C637FF)"/>
</g>
</svg>
